<svg xmlns="http://www.w3.org/2000/svg" xmlns:xlink="http://www.w3.org/1999/xlink" width="72" height="72" viewBox="0 0 72 72">
  <defs>
    <clipPath id="clip-path">
      <rect id="Rectangle_6378" data-name="Rectangle 6378" width="48" height="48" transform="translate(185.854 1210.854)" fill="#1e62c7" stroke="#707070" stroke-width="1"/>
    </clipPath>
  </defs>
  <g id="Group_13733" data-name="Group 13733" transform="translate(-174.854 -1198.854)">
    <rect id="Rectangle_5907" data-name="Rectangle 5907" width="72" height="72" rx="20" transform="translate(174.854 1198.854)" fill="#e8f2ff"/>
    <g id="Mask_Group_84" data-name="Mask Group 84" transform="translate(1)" clip-path="url(#clip-path)">
      <g id="web-software" transform="translate(189.854 1218.854)">
        <path id="Path_24165" data-name="Path 24165" d="M2.708,0H37.292A2.825,2.825,0,0,1,40,2.917V29.083A2.827,2.827,0,0,1,37.292,32H2.708A2.827,2.827,0,0,1,0,29.083V2.917A2.825,2.825,0,0,1,2.708,0ZM29.414,12.686l1.178,1.269a.909.909,0,0,1,0,1.213l-.947,1.02a7.189,7.189,0,0,1,.589,1.69h1.227a.831.831,0,0,1,.8.859V20.53a.831.831,0,0,1-.8.859H30.12a7.018,7.018,0,0,1-.693,1.641l.869.936a.909.909,0,0,1,0,1.213l-1.178,1.269a.76.76,0,0,1-1.126,0l-.947-1.02a6.085,6.085,0,0,1-1.569.635v1.322a.831.831,0,0,1-.8.859H23.014a.831.831,0,0,1-.8-.859V25.941a6.069,6.069,0,0,1-1.523-.747l-.869.936a.76.76,0,0,1-1.126,0L17.52,24.861a.909.909,0,0,1,0-1.213l.947-1.02a7.189,7.189,0,0,1-.589-1.69H16.65a.831.831,0,0,1-.8-.859V18.286a.834.834,0,0,1,.8-.859h1.341a7.159,7.159,0,0,1,.693-1.641l-.869-.936a.909.909,0,0,1,0-1.213l1.178-1.269a.76.76,0,0,1,1.126,0l.947,1.02a6.085,6.085,0,0,1,1.569-.635V11.431a.831.831,0,0,1,.8-.859H25.1a.831.831,0,0,1,.8.859v1.441a6.069,6.069,0,0,1,1.523.747l.869-.936a.762.762,0,0,1,1.126,0Zm-5.361,3.194A3.4,3.4,0,0,1,27.324,19.4a3.4,3.4,0,0,1-3.271,3.524A3.4,3.4,0,0,1,20.781,19.4a3.4,3.4,0,0,1,3.271-3.524ZM17.409,8.167v.859a.751.751,0,0,1-.719.775H15.482a6.528,6.528,0,0,1-.625,1.48l.785.845a.818.818,0,0,1,0,1.094L14.58,14.362a.683.683,0,0,1-1.016,0l-.853-.919a5.469,5.469,0,0,1-1.413.572v1.192a.751.751,0,0,1-.719.775h-1.5a.751.751,0,0,1-.719-.775v-1.3a5.644,5.644,0,0,1-1.374-.673l-.785.845a.683.683,0,0,1-1.016,0L4.124,12.935a.818.818,0,0,1,0-1.094l.853-.919A6.461,6.461,0,0,1,4.447,9.4H3.34a.751.751,0,0,1-.719-.775V8.174h-.9v21.2a.839.839,0,0,0,.218.572.717.717,0,0,0,.531.235H37.64a.722.722,0,0,0,.531-.235.823.823,0,0,0,.218-.572V8.167H17.409Zm-10.339,0a3.059,3.059,0,0,0,2.946,3.026,3.059,3.059,0,0,0,2.946-3.026ZM34.714,3.279A1.392,1.392,0,0,1,36.051,4.72a1.342,1.342,0,1,1-2.676,0,1.4,1.4,0,0,1,1.338-1.441Zm-9.063,0A1.392,1.392,0,0,1,26.989,4.72a1.342,1.342,0,1,1-2.676,0,1.392,1.392,0,0,1,1.338-1.441Zm4.531,0A1.392,1.392,0,0,1,31.52,4.72a1.342,1.342,0,1,1-2.676,0,1.392,1.392,0,0,1,1.338-1.441Z" fill="#1e62c7" fill-rule="evenodd"/>
      </g>
    </g>
  </g>
</svg>
