<svg xmlns="http://www.w3.org/2000/svg" width="44" height="44" viewBox="0 0 44 44">
  <g id="Group_12963" data-name="Group 12963" transform="translate(-849 -178)">
    <rect id="Rectangle_5417" data-name="Rectangle 5417" width="44" height="44" rx="12" transform="translate(849 178)" fill="#e8f2ff"/>
    <g id="Iconly-Bold-Message" transform="translate(859 189)">
      <g id="Message">
        <path id="Message-2" data-name="Message" d="M18.674,22H6.325A6.257,6.257,0,0,1,0,15.828V6.172A6.257,6.257,0,0,1,6.325,0H18.674a6.438,6.438,0,0,1,4.475,1.811A6.057,6.057,0,0,1,25,6.172v9.656A6.258,6.258,0,0,1,18.674,22ZM5.043,6.411a.937.937,0,0,0-.757,1.5l.164.158,5.687,4.34a3.968,3.968,0,0,0,2.438.831,4.032,4.032,0,0,0,2.448-.831l5.64-4.412.1-.1a.93.93,0,0,0-.015-1.222,1.048,1.048,0,0,0-.66-.318h-.053a.962.962,0,0,0-.649.246L13.75,11a1.984,1.984,0,0,1-1.246.441A2.018,2.018,0,0,1,11.25,11L5.625,6.6A.987.987,0,0,0,5.043,6.411Z" fill="#1e62c7"/>
      </g>
    </g>
  </g>
</svg>
