<svg xmlns="http://www.w3.org/2000/svg" width="45" height="45" viewBox="0 0 45 45">
  <g id="Group_15078" data-name="Group 15078" transform="translate(-898 -1746)">
    <rect id="Rectangle_6513" data-name="Rectangle 6513" width="45" height="45" transform="translate(898 1746)" fill="#247cff"/>
    <g id="open-external-link" transform="translate(912.3 1760.301)">
      <path id="Path_24361" data-name="Path 24361" d="M14.794,9.686a.773.773,0,0,1,1.546,0v4.43A2.29,2.29,0,0,1,14.052,16.4H2.289A2.29,2.29,0,0,1,0,14.116V2.294A2.29,2.29,0,0,1,2.289.01H6.7a.771.771,0,1,1,0,1.543H2.289a.744.744,0,0,0-.523.218.735.735,0,0,0-.218.522V14.115a.744.744,0,0,0,.741.739H14.053a.744.744,0,0,0,.523-.218.732.732,0,0,0,.218-.522V9.686Zm.243-7.357L7.225,10.223a.771.771,0,0,1-1.1-1.08l7.512-7.59H10.509a.771.771,0,0,1,0-1.543h3.545c.685,0,1.568-.116,2.093.414.332.335.258,3.006.215,4.553-.011.4-.02.706-.02.925a.773.773,0,0,1-1.546,0c0-.041.011-.443.025-.966.021-.806.151-1.874.217-2.605Z" fill="#fff"/>
    </g>
  </g>
</svg>
