<svg xmlns="http://www.w3.org/2000/svg" xmlns:xlink="http://www.w3.org/1999/xlink" width="120" height="121" viewBox="0 0 120 121">
  <defs>
    <filter id="Ellipse_621" x="0" y="0" width="120" height="121" filterUnits="userSpaceOnUse">
      <feOffset dx="2" dy="2" input="SourceAlpha"/>
      <feGaussianBlur stdDeviation="7.5" result="blur"/>
      <feFlood flood-opacity="0.2"/>
      <feComposite operator="in" in2="blur"/>
      <feComposite in="SourceGraphic"/>
    </filter>
    <clipPath id="clip-path">
      <rect id="Rectangle_6350" data-name="Rectangle 6350" width="48" height="48" transform="translate(773 3041)" fill="#fff" stroke="#707070" stroke-width="1"/>
    </clipPath>
  </defs>
  <g id="Group_15093" data-name="Group 15093" transform="translate(-735.5 -3008.5)">
    <g transform="matrix(1, 0, 0, 1, 735.5, 3008.5)" filter="url(#Ellipse_621)">
      <ellipse id="Ellipse_621-2" data-name="Ellipse 621" cx="37.5" cy="38" rx="37.5" ry="38" transform="translate(20.5 20.5)" fill="#fff"/>
    </g>
    <g id="Mask_Group_56" data-name="Mask Group 56" transform="translate(-3 2)" clip-path="url(#clip-path)">
      <g id="Group_4254" data-name="Group 4254" transform="translate(782.001 3044)">
        <g id="Group_4249" data-name="Group 4249" transform="translate(0 0)">
          <g id="Group_4248" data-name="Group 4248">
            <path id="Path_3761" data-name="Path 3761" d="M504.2,790.973H484.085a4.906,4.906,0,0,0-4.938,4.867v32.266a4.906,4.906,0,0,0,4.938,4.867H504.2a4.914,4.914,0,0,0,4.946-4.867V795.84A4.913,4.913,0,0,0,504.2,790.973Zm-22.5,4.867a2.368,2.368,0,0,1,2.384-2.35H504.2a2.37,2.37,0,0,1,2.392,2.35v1.443H481.7Zm0,3.323h24.892V824.12H481.7Zm24.892,28.943a2.376,2.376,0,0,1-2.392,2.35H484.085a2.374,2.374,0,0,1-2.384-2.35v-2.1h24.892Z" transform="translate(-479.147 -790.973)" fill="#5188db"/>
          </g>
          <rect id="Rectangle_513" data-name="Rectangle 513" width="7.968" height="1.882" rx="0.941" transform="translate(11.006 3.199)" fill="#5188db"/>
          <rect id="Rectangle_514" data-name="Rectangle 514" width="10.377" height="1.882" rx="0.941" transform="translate(9.801 36.111)" fill="#5188db"/>
        </g>
        <path id="Path_124" data-name="Path 124" d="M489.313,809.941v9.717a1.387,1.387,0,0,0,1.387,1.388h9.711a1.391,1.391,0,0,0,1.387-1.388v-9.717a1.392,1.392,0,0,0-1.387-1.388H490.7A1.388,1.388,0,0,0,489.313,809.941Zm8.324,2.777a2.081,2.081,0,1,1-2.082-2.083A2.082,2.082,0,0,1,497.637,812.718Zm-6.243,5.552c0-1.388,2.774-2.152,4.161-2.152s4.162.764,4.162,2.152v.694h-8.324Z" transform="translate(-480.565 -793.801)" fill="#5188db"/>
        <path id="Path_125" data-name="Path 125" d="M484.756,804h20.573v20.14H484.756Z" transform="translate(-480.052 -793.068)" fill="none"/>
        <g id="Group_4250" data-name="Group 4250" transform="translate(19.973 11.828)">
          <path id="Path_3762" data-name="Path 3762" d="M506.857,809.378h-1.677v-2.631H502.55v-1.678h4.307Z" transform="translate(-502.55 -805.068)" fill="#5188db"/>
        </g>
        <g id="Group_4251" data-name="Group 4251" transform="translate(5.709 11.828)">
          <path id="Path_3763" data-name="Path 3763" d="M487.513,809.378h-1.677v-4.31h4.307v1.678h-2.629Z" transform="translate(-485.836 -805.068)" fill="#5188db"/>
        </g>
        <g id="Group_4252" data-name="Group 4252" transform="translate(5.709 25.854)">
          <path id="Path_3764" data-name="Path 3764" d="M490.143,826.092h-4.307v-4.309h1.677v2.631h2.629Z" transform="translate(-485.836 -821.783)" fill="#5188db"/>
        </g>
        <g id="Group_4253" data-name="Group 4253" transform="translate(19.973 25.854)">
          <path id="Path_3765" data-name="Path 3765" d="M506.857,826.092H502.55v-1.678h2.629v-2.631h1.677Z" transform="translate(-502.55 -821.783)" fill="#5188db"/>
        </g>
      </g>
    </g>
  </g>
</svg>
