<svg xmlns="http://www.w3.org/2000/svg" width="367" height="367" viewBox="0 0 367 367">
  <path id="Subtraction_9" data-name="Subtraction 9" d="M17625.5,11632a184.767,184.767,0,0,1-36.98-3.729,182.477,182.477,0,0,1-65.615-27.611,184.027,184.027,0,0,1-66.482-80.736,182.777,182.777,0,0,1-10.691-34.443,185.265,185.265,0,0,1,0-73.963,183.32,183.32,0,0,1,50.02-92.771,183.762,183.762,0,0,1,58.326-39.326,182.7,182.7,0,0,1,34.443-10.691,185.256,185.256,0,0,1,73.961,0,182.506,182.506,0,0,1,65.617,27.611,183.97,183.97,0,0,1,66.482,80.732,182.379,182.379,0,0,1,10.691,34.445,185.17,185.17,0,0,1,0,73.963,182.591,182.591,0,0,1-27.607,65.617,184.057,184.057,0,0,1-80.74,66.482,182.7,182.7,0,0,1-34.443,10.691A184.753,184.753,0,0,1,17625.5,11632Zm0-275.252a91.752,91.752,0,1,0,91.754,91.748A91.852,91.852,0,0,0,17625.5,11356.748Z" transform="translate(-17441.998 -11265)" fill="#247cff" opacity="0.05"/>
</svg>
