<svg xmlns="http://www.w3.org/2000/svg" xmlns:xlink="http://www.w3.org/1999/xlink" width="72" height="72" viewBox="0 0 72 72">
  <defs>
    <linearGradient id="linear-gradient" x1="0.5" x2="0.5" y2="1" gradientUnits="objectBoundingBox">
      <stop offset="0" stop-color="#e8f2ff"/>
      <stop offset="1" stop-color="#e8f2ff"/>
    </linearGradient>
    <clipPath id="clip-path">
      <rect id="Rectangle_5429" data-name="Rectangle 5429" width="58" height="58" transform="translate(857.084 178.084)" fill="#1e62c7"/>
    </clipPath>
    <clipPath id="clip-path-2">
      <path id="Path_4331" data-name="Path 4331" d="M22.083,166.392v1.483a1.068,1.068,0,1,0,2.137,0v-1.483a1.068,1.068,0,1,0-2.137,0" transform="translate(-22.083 -165.323)" fill="#1e62c7"/>
    </clipPath>
    <clipPath id="clip-path-3">
      <path id="Path_4332" data-name="Path 4332" d="M46.091,166.392v1.483a1.068,1.068,0,1,0,2.137,0v-1.483a1.068,1.068,0,1,0-2.137,0" transform="translate(-46.091 -165.323)" fill="#1e62c7"/>
    </clipPath>
    <clipPath id="clip-path-4">
      <path id="Path_4333" data-name="Path 4333" d="M22.083,205.6v1.483a1.068,1.068,0,0,0,2.137,0V205.6a1.068,1.068,0,0,0-2.137,0" transform="translate(-22.083 -204.531)" fill="#1e62c7"/>
    </clipPath>
    <clipPath id="clip-path-5">
      <path id="Path_4334" data-name="Path 4334" d="M46.091,205.6v1.483a1.068,1.068,0,0,0,2.137,0V205.6a1.068,1.068,0,0,0-2.137,0" transform="translate(-46.091 -204.531)" fill="#1e62c7"/>
    </clipPath>
    <clipPath id="clip-path-6">
      <path id="Path_4335" data-name="Path 4335" d="M19.825,36.793h4.92v7.32h-4.92ZM2.137,43.228q0-7.318,0-14.636c0-1.4.236-1.636,1.613-1.637h8.511V44.128H2.182c-.016-.318-.044-.609-.044-.9M41.476,26.953c.7,0,1.214.272,1.217,1.022.017,5.36.009,10.72.009,16.145H32.239V26.954h9.237M14.45,43.322q0-10.3.012-20.609a1.5,1.5,0,0,1,.341-1.027c2.447-2.137,4.931-4.231,7.488-6.409,2.543,2.179,5.016,4.287,7.467,6.422a1.144,1.144,0,0,1,.324.777q.024,10.621.007,21.241a3.043,3.043,0,0,1-.061.4H26.944v-.947c0-2.41.005-4.82,0-7.231,0-.972-.315-1.311-1.3-1.321q-3.3-.034-6.6,0c-1.036.01-1.334.336-1.336,1.37-.007,2.677,0,5.354,0,8.112H14.5c-.017-.259-.048-.521-.049-.782M10.582,20.01,22.325,9.953,34.073,20l-1.289,1.441c-1.712-1.458-3.381-2.876-5.046-4.3q-2.093-1.79-4.176-3.59c-1.107-.953-1.354-.95-2.455-.009q-4.46,3.814-8.929,7.618c-.09.077-.192.138-.368.263l-1.23-1.417M23.57,2.2h2.978V4.372H23.57ZM25.811,0c-.967,0-1.934.009-2.9.011-1.2,0-1.552.347-1.557,1.561-.008,1.9.03,3.8-.027,5.7a1.826,1.826,0,0,1-.554,1.192c-3.98,3.46-7.992,6.88-11.987,10.32-.932.8-1.03,1.332-.145,2.174,1.135,1.076,1.635,2.945,3.634,3.066v.8H11.231c-2.562,0-5.124-.014-7.686.005A3.228,3.228,0,0,0,0,28.355Q-.006,36.54,0,44.722c0,1.287.307,1.587,1.6,1.587H43.2c1.362,0,1.651-.283,1.652-1.625V28.5c0-2.428-1.235-3.667-3.674-3.676q-2.756-.009-5.513,0H32.238v-.686a4.761,4.761,0,0,0,1.5-.63c.9-.886,1.7-1.871,2.521-2.836a1.075,1.075,0,0,0-.136-1.664c-.224-.2-.448-.4-.677-.6-3.708-3.174-7.389-6.38-11.147-9.494a2.182,2.182,0,0,1-.719-2.388c1.765,0,3.48.037,5.192-.027a1.538,1.538,0,0,0,1.166-.586,1.789,1.789,0,0,0-.237-1.3,9.66,9.66,0,0,0-.974-1.355,7.864,7.864,0,0,0,.957-1.31A1.968,1.968,0,0,0,29.9.566c-.139-.3-.778-.52-1.2-.533C27.8.008,26.908,0,26.012,0Z" transform="translate(0.003 0)" fill="#1e62c7"/>
    </clipPath>
    <clipPath id="clip-path-7">
      <path id="Path_4336" data-name="Path 4336" d="M105.505,156c-1.216.006-2.431.005-3.647,0H98.914c-.91,0-1.408.38-1.369,1.056.048.814.62,1.035,1.315,1.044.779.009,1.558.007,2.337.005h1c1.114,0,2.228.021,3.341-.007.936-.023,1.375-.411,1.31-1.122-.076-.8-.629-.982-1.326-.982h-.02" transform="translate(-97.543 -155.999)" fill="#1e62c7"/>
    </clipPath>
    <clipPath id="clip-path-8">
      <path id="Path_4337" data-name="Path 4337" d="M189.444,166.392v1.483a1.068,1.068,0,1,0,2.137,0v-1.483a1.068,1.068,0,1,0-2.137,0" transform="translate(-189.444 -165.323)" fill="#1e62c7"/>
    </clipPath>
    <clipPath id="clip-path-9">
      <path id="Path_4338" data-name="Path 4338" d="M213.451,166.392v1.483a1.068,1.068,0,1,0,2.137,0v-1.483a1.068,1.068,0,1,0-2.137,0" transform="translate(-213.451 -165.323)" fill="#1e62c7"/>
    </clipPath>
    <clipPath id="clip-path-10">
      <path id="Path_4339" data-name="Path 4339" d="M189.444,205.6v1.483a1.068,1.068,0,1,0,2.137,0V205.6a1.068,1.068,0,0,0-2.137,0" transform="translate(-189.444 -204.531)" fill="#1e62c7"/>
    </clipPath>
    <clipPath id="clip-path-11">
      <path id="Path_4340" data-name="Path 4340" d="M213.451,205.6v1.483a1.068,1.068,0,1,0,2.137,0V205.6a1.068,1.068,0,1,0-2.137,0" transform="translate(-213.451 -204.531)" fill="#1e62c7"/>
    </clipPath>
  </defs>
  <g id="Group_13239" data-name="Group 13239" transform="translate(-892 -177)">
    <rect id="Rectangle_5433" data-name="Rectangle 5433" width="72" height="72" rx="18" transform="translate(892 177)" fill="url(#linear-gradient)"/>
    <g id="Mask_Group_34" data-name="Mask Group 34" transform="translate(41.916 5.916)" clip-path="url(#clip-path)">
      <g id="counter1" transform="translate(863.658 183.93)">
        <g id="Group_4792" data-name="Group 4792" transform="translate(3.996 29.903)">
          <g id="Group_4791" data-name="Group 4791" transform="translate(0 0)" clip-path="url(#clip-path-2)">
            <rect id="Rectangle_679" data-name="Rectangle 679" width="2.137" height="3.619" transform="translate(0 0)" fill="#1e62c7"/>
          </g>
        </g>
        <g id="Group_4794" data-name="Group 4794" transform="translate(8.339 29.903)">
          <g id="Group_4793" data-name="Group 4793" transform="translate(0 0)" clip-path="url(#clip-path-3)">
            <rect id="Rectangle_680" data-name="Rectangle 680" width="2.137" height="3.619" transform="translate(0 0)" fill="#1e62c7"/>
          </g>
        </g>
        <g id="Group_4796" data-name="Group 4796" transform="translate(3.996 36.994)">
          <g id="Group_4795" data-name="Group 4795" transform="translate(0 0)" clip-path="url(#clip-path-4)">
            <rect id="Rectangle_681" data-name="Rectangle 681" width="2.137" height="3.619" transform="translate(0 0)" fill="#1e62c7"/>
          </g>
        </g>
        <g id="Group_4798" data-name="Group 4798" transform="translate(8.339 36.994)">
          <g id="Group_4797" data-name="Group 4797" transform="translate(0 0)" clip-path="url(#clip-path-5)">
            <rect id="Rectangle_682" data-name="Rectangle 682" width="2.137" height="3.619" transform="translate(0 0)" fill="#1e62c7"/>
          </g>
        </g>
        <g id="Group_4800" data-name="Group 4800" transform="translate(0)">
          <g id="Group_4799" data-name="Group 4799" clip-path="url(#clip-path-6)">
            <rect id="Rectangle_683" data-name="Rectangle 683" width="44.85" height="46.309" transform="translate(0)" fill="#1e62c7"/>
          </g>
        </g>
        <g id="Group_4802" data-name="Group 4802" transform="translate(17.645 28.216)">
          <g id="Group_4801" data-name="Group 4801" transform="translate(0 0)" clip-path="url(#clip-path-7)">
            <rect id="Rectangle_684" data-name="Rectangle 684" width="9.414" height="2.131" transform="translate(-0.037 0.001)" fill="#1e62c7"/>
          </g>
        </g>
        <g id="Group_4804" data-name="Group 4804" transform="translate(34.268 29.903)">
          <g id="Group_4803" data-name="Group 4803" transform="translate(0 0)" clip-path="url(#clip-path-8)">
            <rect id="Rectangle_685" data-name="Rectangle 685" width="2.137" height="3.619" transform="translate(0 0)" fill="#1e62c7"/>
          </g>
        </g>
        <g id="Group_4806" data-name="Group 4806" transform="translate(38.61 29.903)">
          <g id="Group_4805" data-name="Group 4805" transform="translate(0 0)" clip-path="url(#clip-path-9)">
            <rect id="Rectangle_686" data-name="Rectangle 686" width="2.137" height="3.619" transform="translate(0 0)" fill="#1e62c7"/>
          </g>
        </g>
        <g id="Group_4808" data-name="Group 4808" transform="translate(34.268 36.994)">
          <g id="Group_4807" data-name="Group 4807" transform="translate(0 0)" clip-path="url(#clip-path-10)">
            <rect id="Rectangle_687" data-name="Rectangle 687" width="2.137" height="3.619" transform="translate(0 0)" fill="#1e62c7"/>
          </g>
        </g>
        <g id="Group_4810" data-name="Group 4810" transform="translate(38.61 36.994)">
          <g id="Group_4809" data-name="Group 4809" transform="translate(0 0)" clip-path="url(#clip-path-11)">
            <rect id="Rectangle_688" data-name="Rectangle 688" width="2.137" height="3.619" transform="translate(0 0)" fill="#1e62c7"/>
          </g>
        </g>
      </g>
    </g>
  </g>
</svg>
