<svg xmlns="http://www.w3.org/2000/svg" xmlns:xlink="http://www.w3.org/1999/xlink" width="121" height="121" viewBox="0 0 121 121">
  <defs>
    <filter id="Ellipse_623" x="0" y="0" width="121" height="121" filterUnits="userSpaceOnUse">
      <feOffset dx="2" dy="2" input="SourceAlpha"/>
      <feGaussianBlur stdDeviation="7.5" result="blur"/>
      <feFlood flood-opacity="0.2"/>
      <feComposite operator="in" in2="blur"/>
      <feComposite in="SourceGraphic"/>
    </filter>
    <clipPath id="clip-path">
      <rect id="Rectangle_6352" data-name="Rectangle 6352" width="48" height="48" transform="translate(982 3043)" fill="#fff"/>
    </clipPath>
  </defs>
  <g id="Group_15095" data-name="Group 15095" transform="translate(-957.5 -3008.5)">
    <g transform="matrix(1, 0, 0, 1, 957.5, 3008.5)" filter="url(#Ellipse_623)">
      <circle id="Ellipse_623-2" data-name="Ellipse 623" cx="38" cy="38" r="38" transform="translate(20.5 20.5)" fill="#fff"/>
    </g>
    <g id="Mask_Group_58" data-name="Mask Group 58" transform="translate(10)" clip-path="url(#clip-path)">
      <g id="Group_4623" data-name="Group 4623" transform="translate(989 3050)">
        <path id="Path_4033" data-name="Path 4033" d="M269.395,1088.117V1112.6a2.641,2.641,0,0,1-2.942,2.054c-3.666-.054-7.333-.017-11-.017h-.419a5.373,5.373,0,0,0,.429,2.1,2.507,2.507,0,0,0,2.417,1.6c.433.008.867,0,1.3.008a1.788,1.788,0,0,1,1.42.707,1.919,1.919,0,0,1,.345,1.59,1.864,1.864,0,0,1-1.973,1.446H243.824a3.154,3.154,0,0,1-.455-.032,1.867,1.867,0,0,1,.215-3.711c.445-.01.89,0,1.336-.008a3,3,0,0,0,2.19-1.209,3.207,3.207,0,0,0,.578-2.495h-.412c-3.842,0-7.685,0-11.528-.005a2.315,2.315,0,0,1-1.674-.722,2.475,2.475,0,0,1-.68-1.737q0-11.8.016-23.61a2.809,2.809,0,0,1,.392-1.318,2.325,2.325,0,0,1,2.18-1.137h30.963a2.436,2.436,0,0,1,2.373,1.891.571.571,0,0,0,.076.121Zm-32.379,20.257h28.757v-18.491H237.017Zm31.178,1.346H234.6v2.1c0,1.14.427,1.582,1.528,1.582h30.862a1.218,1.218,0,0,0,1.2-1.216c.025-.809.006-1.62.006-2.461Zm0-1.329v-.443c0-6.355-.008-12.71.01-19.065a1.409,1.409,0,0,0-.379-1.116,1.313,1.313,0,0,0-1.076-.4q-15.358.03-30.716.012c-1,0-1.439.452-1.439,1.476v19.544h1.2v-18.854c0-.777.157-.943.9-.943h29.42c.726,0,.893.173.893.912v18.883Zm-14.4,6.276h-4.805a6.42,6.42,0,0,1-1.212,3.648h7.245a6.46,6.46,0,0,1-1.228-3.648Zm-2.419,6.155h7.73c.42,0,.652-.211.665-.576a.581.581,0,0,0-.65-.634c-.432-.008-.842.019-1.264.019H244.928c-.444,0-.89-.031-1.334-.013a.55.55,0,0,0-.442.192.59.59,0,0,0-.135.475c.029.354.263.539.7.539q3.831,0,7.662-.005Z" transform="translate(-234.463 -1087.165)" fill="#5188db"/>
        <path id="Path_4034" data-name="Path 4034" d="M329.2,1143.771c-.526.255-1.037.491-1.535.754-.07.037-.1.208-.106.318-.007,1.223-.014,2.447,0,3.67a.753.753,0,0,1-.45.757q-3.26,1.677-6.514,3.366a.81.81,0,0,1-.815,0q-3.254-1.7-6.518-3.369a.748.748,0,0,1-.45-.755c.014-1.223,0-2.447.011-3.67a.383.383,0,0,0-.256-.409c-.724-.339-1.438-.7-2.162-1.042a.612.612,0,0,1-.01-1.162q4.723-2.3,9.44-4.594a.835.835,0,0,1,.789.044c3.034,1.481,6.065,2.967,9.113,4.417a1.028,1.028,0,0,1,.675,1.121c-.044,1.462-.02,2.926-.006,4.39a1.206,1.206,0,0,0,.17.566c.251.43.538.836.8,1.258a.611.611,0,0,1,.094.632.568.568,0,0,1-1.044.025c-.1-.148-.2-.3-.3-.456l-.315-.484c-.219.334-.419.638-.616.943a.583.583,0,0,1-.61.319.571.571,0,0,1-.437-.355.6.6,0,0,1,.067-.57c.278-.454.579-.892.858-1.34a.85.85,0,0,0,.147-.4c.011-1.269.006-2.538,0-3.807a.937.937,0,0,0-.029-.163Zm-1.985-.355H320.77c0,.18.006.339,0,.5a.609.609,0,0,1-.152.458.568.568,0,0,1-.431.19.562.562,0,0,1-.43-.194.6.6,0,0,1-.143-.462q-.015-1.1,0-2.194a.6.6,0,0,1,.146-.461.564.564,0,0,1,.43-.194.574.574,0,0,1,.43.194.613.613,0,0,1,.151.459c.007.166,0,.331,0,.5h6.42c-.144-.081-.215-.126-.289-.163-2.148-1.044-4.3-2.084-6.441-3.137a.555.555,0,0,0-.551.009q-2.9,1.422-5.81,2.828c-.713.347-1.425.695-2.165,1.053a1.464,1.464,0,0,0,.144.1q3.963,1.923,7.93,3.835a.554.554,0,0,0,.421-.026c1.041-.493,2.076-1,3.112-1.506Zm-13.262,1.713c0,1.042-.007,2.01.009,2.984a.42.42,0,0,0,.21.287q2.9,1.513,5.806,3a.53.53,0,0,0,.423,0c1.931-.986,3.855-1.987,5.783-2.977a.371.371,0,0,0,.241-.383c-.012-.869,0-1.738-.006-2.607a2.317,2.317,0,0,0-.027-.25.383.383,0,0,0-.093.011c-1.785.861-3.57,1.723-5.35,2.6a.428.428,0,0,0-.174.309c-.022.353,0,.708-.011,1.063a.618.618,0,0,1-.14.463.577.577,0,0,1-.425.207c-.351.008-.581-.248-.593-.67-.008-.32-.017-.641,0-.957a.414.414,0,0,0-.278-.464c-1.173-.554-2.336-1.127-3.5-1.694Z" transform="translate(-303.188 -1132.834)" fill="#5188db"/>
        <path id="Path_4035" data-name="Path 4035" d="M401.8,1341.78h1.624a.555.555,0,0,1,.636.574.575.575,0,0,1-.655.594H400.19c-.42,0-.657-.223-.648-.6s.229-.569.637-.574Q400.985,1341.781,401.8,1341.78Z" transform="translate(-384.796 -1318.335)" fill="#5188db"/>
      </g>
    </g>
  </g>
</svg>
