<svg xmlns="http://www.w3.org/2000/svg" width="178.885" height="38" viewBox="0 0 178.885 38">
  <g id="Group_15188" data-name="Group 15188" transform="translate(-952 -260)">
    <g id="Logo" transform="translate(816.885 184.681)">
      <g id="Group_6" data-name="Group 6" transform="translate(6 -1.361)">
        <g id="Logo_Name" data-name="Logo Name" transform="translate(0 2)">
          <path id="Path_12" data-name="Path 12" d="M433.015,114.335h10.234v2.521h-7.713v4.568h7.713v2.521h-7.713v6.318h7.713v2.521H433.015v-18.45Zm17.166,0h4.474q5.317,0,7.91,2.808a9.2,9.2,0,0,1,2.6,6.417,9.035,9.035,0,0,1-2.68,6.432q-2.684,2.8-7.8,2.793h-4.5v-18.45ZM452.7,116.8v13.467h.143a26.028,26.028,0,0,0,4.217-.252,6.972,6.972,0,0,0,2.685-1.108,6.121,6.121,0,0,0,2.022-2.259,6.5,6.5,0,0,0,.751-3.1,6.588,6.588,0,0,0-1.2-3.846,5.951,5.951,0,0,0-2.867-2.309,13.753,13.753,0,0,0-4.484-.593Zm19.212-2.462h2.521v11.341a5.726,5.726,0,0,0,1.211,3.9,4.326,4.326,0,0,0,3.426,1.375,4.533,4.533,0,0,0,3.421-1.266,4.934,4.934,0,0,0,1.226-3.569V114.335h2.521v11.6a7.524,7.524,0,0,1-1.933,5.418,6.794,6.794,0,0,1-5.151,2.027,6.978,6.978,0,0,1-5.265-2.056q-1.98-2.054-1.978-6.066V114.335Zm21.793-.742,13.645,14.01V114.335h2.521v19.31l-13.645-13.966v13.106h-2.521V113.593Zm23.662.742H527.6v2.521h-7.712v4.568H527.6v2.521h-7.712v6.318H527.6v2.521H517.37v-18.45Zm16.424,0h2.774l4.118,6.743,4.088-6.743h2.813l-5.5,9.067,5.646,9.383h-2.774l-4.276-7.065-4.286,7.065h-2.813l5.69-9.388-5.483-9.062Zm19.89,0h11.331v2.521H560.6v15.928h-2.521V116.856h-4.39Z" transform="translate(-258.015 -35.232)" fill="#0082c6"/>
        </g>
        <g id="Taggline" transform="translate(0.151 3)">
          <text id="School_ERP_E-Learning_Mobile_App" data-name="School ERP            E-Learning             Mobile App" transform="translate(174.849 107)" fill="#0082c6" font-size="6" font-family="TrebuchetMS, Trebuchet MS"><tspan x="0" y="0" xml:space="preserve">School ERP            E-Learning             Mobile App</tspan></text>
          <path id="Path_13" data-name="Path 13" d="M995.772,465.275a1.532,1.532,0,1,1-1.545,1.532A1.539,1.539,0,0,1,995.772,465.275Z" transform="translate(-780.858 -362.275)" fill="#0082c6"/>
          <path id="Path_14" data-name="Path 14" d="M1645.279,465.275a1.532,1.532,0,1,1-1.545,1.532A1.539,1.539,0,0,1,1645.279,465.275Z" transform="translate(-1379.042 -362.275)" fill="#0082c6"/>
        </g>
      </g>
    </g>
    <g id="Group_15187" data-name="Group 15187">
      <rect id="Rectangle_6688" data-name="Rectangle 6688" width="38" height="38" rx="4" transform="translate(952 260)" fill="#0082c6"/>
      <g id="Group_15186" data-name="Group 15186" transform="translate(964.431 266.746)">
        <path id="Path_4" data-name="Path 4" d="M80.675,270.212l1.6.707v13.41l-1.6-.512Z" transform="translate(-80.675 -260.84)" fill="#fff"/>
        <path id="Path_5" data-name="Path 5" d="M148.639,208.353,158,204.08l-.055,10.71-9.3,4.349V215.05l4.839-2.05v-2.2l-4.839,2.05v-4.5Zm7.447,2.629-.665-.123v.838l.665-.714Zm-1.041.9v-1.055l-1.193-.059,0,2.1Z" transform="translate(-144.975 -198.274)" fill="#fff"/>
        <path id="Path_6" data-name="Path 6" d="M148.639,453.636,158,449.364l-.009,1.809-9.35,4.16Z" transform="translate(-144.975 -430.335)" fill="#fff"/>
        <path id="Path_7" data-name="Path 7" d="M102.3,125.152l-4.27,6.506c1.4-2.372,3.569-6.29,3.923-7.782Z" transform="translate(-97.098 -122.393)" fill="#fff"/>
        <path id="Path_8" data-name="Path 8" d="M104.963,99.118l-6.929,7.19c2.271-2.936,6.562-8,6.7-9.227Z" transform="translate(-97.098 -97.043)" fill="#fff"/>
        <path id="Path_9" data-name="Path 9" d="M107.255,98.757l-9.221,6.881c3.106-2.913,8.993-7.727,9.171-9.265Z" transform="translate(-97.098 -96.373)" fill="#fff"/>
        <path id="Path_10" data-name="Path 10" d="M109.509,115.174l-11.475,5.617c3.961-2.469,11.06-7.105,11.414-8.4C109.422,113.067,109.536,114.5,109.509,115.174Z" transform="translate(-97.098 -111.527)" fill="#fff"/>
        <path id="Path_11" data-name="Path 11" d="M100.611,142.831l-2.577,5.554a60.3,60.3,0,0,0,2.231-6.83Z" transform="translate(-97.098 -139.119)" fill="#fff"/>
      </g>
    </g>
  </g>
</svg>
