<svg xmlns="http://www.w3.org/2000/svg" width="32" height="32" viewBox="0 0 32 32">
  <g id="Group_12976" data-name="Group 12976" transform="translate(-849.333 -178.333)">
    <rect id="Rectangle_5417" data-name="Rectangle 5417" width="32" height="32" rx="4" transform="translate(849.333 178.333)" fill="#e8f2ff"/>
    <g id="Iconly-Bold-Location" transform="translate(857.454 185.141)">
      <g id="Location">
        <path id="Location-2" data-name="Location" d="M7.883,18.383a1.266,1.266,0,0,1-.68-.227A19.876,19.876,0,0,1,2.067,13.43,9.5,9.5,0,0,1,0,7.646,7.478,7.478,0,0,1,2.32,2.237,7.941,7.941,0,0,1,7.872,0a7.777,7.777,0,0,1,7.885,7.646A9.5,9.5,0,0,1,13.69,13.43a20.253,20.253,0,0,1-5.136,4.725A1.23,1.23,0,0,1,7.883,18.383ZM7.872,5.31A2.587,2.587,0,0,0,5.278,7.884a2.482,2.482,0,0,0,.761,1.8,2.616,2.616,0,0,0,1.833.734,2.572,2.572,0,0,0,2.607-2.531A2.538,2.538,0,0,0,9.712,6.07,2.6,2.6,0,0,0,7.872,5.31Z" fill="#247cff"/>
      </g>
    </g>
  </g>
</svg>
