<svg xmlns="http://www.w3.org/2000/svg" xmlns:xlink="http://www.w3.org/1999/xlink" width="120" height="121" viewBox="0 0 120 121">
  <defs>
    <filter id="Ellipse_620" x="0" y="0" width="120" height="121" filterUnits="userSpaceOnUse">
      <feOffset dx="2" dy="2" input="SourceAlpha"/>
      <feGaussianBlur stdDeviation="7.5" result="blur"/>
      <feFlood flood-opacity="0.2"/>
      <feComposite operator="in" in2="blur"/>
      <feComposite in="SourceGraphic"/>
    </filter>
    <clipPath id="clip-path">
      <rect id="Rectangle_6349" data-name="Rectangle 6349" width="48" height="48" transform="translate(656 3179)" fill="#fff" stroke="#707070" stroke-width="1"/>
    </clipPath>
  </defs>
  <g id="Group_15092" data-name="Group 15092" transform="translate(-625.5 -3144.5)">
    <g transform="matrix(1, 0, 0, 1, 625.5, 3144.5)" filter="url(#Ellipse_620)">
      <ellipse id="Ellipse_620-2" data-name="Ellipse 620" cx="37.5" cy="38" rx="37.5" ry="38" transform="translate(20.5 20.5)" fill="#fff"/>
    </g>
    <g id="Mask_Group_55" data-name="Mask Group 55" transform="translate(4)" clip-path="url(#clip-path)">
      <g id="Group_11927" data-name="Group 11927" transform="translate(658 3188)">
        <g id="Group_4257" data-name="Group 4257" transform="translate(0.399 0)">
          <path id="Path_3776" data-name="Path 3776" d="M443.865,42.614c-6.455,0-12.475-.821-16.515-2.251-.024-.008-.048-.018-.071-.028-3.308-1.184-4.986-2.684-4.986-4.461,0-4.427,10.852-6.743,21.572-6.743.81,0,1.621.014,2.41.04,9.545.306,19.161,2.5,19.161,6.7s-9.616,6.393-19.147,6.7h-.046C445.489,42.6,444.678,42.614,443.865,42.614Zm-15.817-4.095c3.846,1.347,9.6,2.118,15.817,2.118.793,0,1.582-.013,2.347-.039h.047c11.1-.357,17.253-3.02,17.253-4.724s-6.155-4.37-17.284-4.727c-.785-.026-1.575-.039-2.365-.039-11.994,0-19.648,2.823-19.648,4.767,0,.591.978,1.629,3.735,2.608A.929.929,0,0,1,428.048,38.519Z" transform="translate(-422.293 -29.131)" fill="#5188db"/>
        </g>
        <g id="Group_4258" data-name="Group 4258" transform="translate(18.848 3.208)">
          <ellipse id="Ellipse_50" data-name="Ellipse 50" cx="2.657" cy="1.246" rx="2.657" ry="1.246" transform="translate(0 0)" fill="#5188db"/>
        </g>
        <g id="Group_4259" data-name="Group 4259" transform="translate(19.897 7.869)">
          <ellipse id="Ellipse_51" data-name="Ellipse 51" cx="2.657" cy="1.246" rx="2.657" ry="1.246" transform="translate(0)" fill="#5188db"/>
        </g>
        <g id="Group_4260" data-name="Group 4260" transform="translate(26.77 5.091)">
          <ellipse id="Ellipse_52" data-name="Ellipse 52" cx="2.657" cy="1.246" rx="2.657" ry="1.246" transform="translate(0)" fill="#5188db"/>
        </g>
        <g id="Group_4263" data-name="Group 4263" transform="translate(11.622 5.091)">
          <ellipse id="Ellipse_52-2" data-name="Ellipse 52" cx="2.657" cy="1.246" rx="2.657" ry="1.246" transform="translate(0)" fill="#5188db"/>
        </g>
        <g id="Group_4261" data-name="Group 4261" transform="translate(0 9.273)">
          <path id="Path_3777" data-name="Path 3777" d="M443.033,78.008a31.465,31.465,0,0,1-5.209-.435l-7.162-1.2a11.689,11.689,0,0,1-9.609-11.7v-6.4a.989.989,0,0,1,.746-.971.951.951,0,0,1,1.081.536h0s.823,1.467,4.261,2.81c3.793,1.48,9.138,2.23,15.883,2.23.872,0,1.646-.011,2.367-.033,15.176-.43,17.821-4.987,17.846-5.033l.018-.031a.957.957,0,0,1,.837-.5.979.979,0,0,1,.962,1v6.4a11.689,11.689,0,0,1-9.608,11.7l-7.163,1.2c-.93.156-1.86.269-2.766.336Q444.278,78.007,443.033,78.008ZM422.977,60.659v4.016A9.724,9.724,0,0,0,430.97,74.4l7.162,1.2a29.58,29.58,0,0,0,7.242.315c.854-.063,1.727-.169,2.6-.315l7.162-1.2a9.724,9.724,0,0,0,7.992-9.729V60.646c-2.286,1.686-7.249,3.9-17.684,4.195-.738.023-1.53.034-2.421.034-6.978,0-12.55-.794-16.562-2.359A14.955,14.955,0,0,1,422.977,60.659Z" transform="translate(-421.053 -57.28)" fill="#5188db"/>
        </g>
      </g>
    </g>
  </g>
</svg>
