<svg width="183" height="172" viewBox="0 0 183 172" fill="none" xmlns="http://www.w3.org/2000/svg">
<path fill-rule="evenodd" clip-rule="evenodd" d="M110.544 2.04446C110.799 5.86353 111.414 9.58473 112.353 13.1748C114.743 22.3058 113.775 32.5702 107.082 39.2429L46.1782 99.9549C39.3471 106.765 28.789 107.622 19.4871 105.023C14.5329 103.638 9.31999 102.871 3.93707 102.809C37.1422 107.27 62.7434 135.632 62.7434 169.955C62.7434 170.443 62.7382 170.929 62.7277 171.414C63.1392 168.583 63.352 165.688 63.352 162.744C63.352 158.893 62.9881 155.126 62.2916 151.477C60.6551 142.899 61.9696 133.571 68.1638 127.396L133.405 62.3599C139.739 56.0465 149.356 54.8263 158.122 56.6605C162.129 57.4991 166.282 57.94 170.538 57.94C173.941 57.94 177.278 57.6581 180.526 57.1165C178.755 57.2604 176.965 57.3333 175.157 57.3333C142.425 57.3333 115.312 33.3466 110.544 2.04446Z" fill="#98BAEE"/>
</svg>
