<svg xmlns="http://www.w3.org/2000/svg" xmlns:xlink="http://www.w3.org/1999/xlink" width="121" height="121" viewBox="0 0 121 121">
  <defs>
    <filter id="Ellipse_617" x="0" y="0" width="121" height="121" filterUnits="userSpaceOnUse">
      <feOffset dx="2" dy="2" input="SourceAlpha"/>
      <feGaussianBlur stdDeviation="7.5" result="blur"/>
      <feFlood flood-opacity="0.2"/>
      <feComposite operator="in" in2="blur"/>
      <feComposite in="SourceGraphic"/>
    </filter>
    <clipPath id="clip-path">
      <rect id="Rectangle_6347" data-name="Rectangle 6347" width="48" height="48" transform="translate(322 3041)" fill="#fff" stroke="#707070" stroke-width="1"/>
    </clipPath>
  </defs>
  <g id="Group_15089" data-name="Group 15089" transform="translate(-291.5 -3008.5)">
    <g transform="matrix(1, 0, 0, 1, 291.5, 3008.5)" filter="url(#Ellipse_617)">
      <circle id="Ellipse_617-2" data-name="Ellipse 617" cx="38" cy="38" r="38" transform="translate(20.5 20.5)" fill="#fff"/>
    </g>
    <g id="Mask_Group_53" data-name="Mask Group 53" transform="translate(4 2)" clip-path="url(#clip-path)">
      <g id="Group_4203" data-name="Group 4203" transform="translate(326.775 3045.471)">
        <g id="Group_4236" data-name="Group 4236" transform="translate(0)">
          <g id="Group_4226" data-name="Group 4226" transform="translate(6.201 17.27)">
            <path id="Path_3640" data-name="Path 3640" d="M-664.177,996.92c0,2.06-1.6,3.493-3.883,3.493h-18.357a3.883,3.883,0,0,1-3.883-3.876V980.274a.993.993,0,0,1,.99-.99.993.993,0,0,1,.991.99v13.51h16.277a.658.658,0,0,1,.66.66.662.662,0,0,1-.66.66h-16.277v1.433a1.9,1.9,0,0,0,1.9,1.9h18.357c.317,0,1.9-.073,1.9-1.512a.989.989,0,0,1,.99-.991A.99.99,0,0,1-664.177,996.92Z" transform="translate(690.3 -979.283)" fill="#5188db"/>
          </g>
          <g id="Group_4227" data-name="Group 4227" transform="translate(12.956 8.981)">
            <path id="Path_3641" data-name="Path 3641" d="M-664.451,977.208a.66.66,0,0,1-.66-.66v-7.639a1.527,1.527,0,0,0-1.525-1.525H-679.4a.66.66,0,0,1-.66-.66.66.66,0,0,1,.66-.66h12.768a2.849,2.849,0,0,1,2.846,2.845v7.639A.66.66,0,0,1-664.451,977.208Z" transform="translate(680.065 -966.063)" fill="#5188db"/>
          </g>
          <g id="Group_4228" data-name="Group 4228" transform="translate(9.277 17.458)">
            <path id="Path_3642" data-name="Path 3642" d="M-670.357,990.491H-682.8a2.849,2.849,0,0,1-2.846-2.846v-7.772a.66.66,0,0,1,.66-.66.661.661,0,0,1,.66.66v7.772a1.527,1.527,0,0,0,1.525,1.525h12.446a.66.66,0,0,1,.66.66A.66.66,0,0,1-670.357,990.491Z" transform="translate(685.649 -979.213)" fill="#5188db"/>
          </g>
          <g id="Group_4229" data-name="Group 4229" transform="translate(0 4.649)">
            <path id="Path_3643" data-name="Path 3643" d="M-689.924,959.173H-697a2.733,2.733,0,0,0-2.733,2.727v6.953A2.734,2.734,0,0,0-697,971.587h7.072a2.731,2.731,0,0,0,2.735-2.734V961.9A2.73,2.73,0,0,0-689.924,959.173Zm1.414,9.68a1.415,1.415,0,0,1-1.414,1.413H-697a1.415,1.415,0,0,1-1.412-1.413V961.9A1.409,1.409,0,0,1-697,960.494h7.072a1.41,1.41,0,0,1,1.414,1.407Z" transform="translate(699.729 -959.173)" fill="#5188db"/>
          </g>
          <g id="Group_4230" data-name="Group 4230" transform="translate(25.982 20.643)">
            <path id="Path_3644" data-name="Path 3644" d="M-650.326,996.911h-7.545a2.439,2.439,0,0,1-2.437-2.436v-7.647a2.439,2.439,0,0,1,2.437-2.436h7.545a2.439,2.439,0,0,1,2.437,2.436v7.647A2.439,2.439,0,0,1-650.326,996.911Zm-7.545-11.2a1.117,1.117,0,0,0-1.116,1.115v7.647a1.117,1.117,0,0,0,1.116,1.115h7.545a1.117,1.117,0,0,0,1.116-1.115v-7.647a1.117,1.117,0,0,0-1.116-1.115Z" transform="translate(660.307 -984.392)" fill="#5188db"/>
          </g>
          <g id="Group_4231" data-name="Group 4231" transform="translate(17.546 33.766)">
            <path id="Path_3645" data-name="Path 3645" d="M-670.73,1006.551h-1.437a.953.953,0,0,1-.952-.952v-.383a.953.953,0,0,1,.952-.952h1.437a.953.953,0,0,1,.952.952v.383A.953.953,0,0,1-670.73,1006.551Zm-1.437-1.626a.292.292,0,0,0-.292.291v.383a.292.292,0,0,0,.292.291h1.437a.292.292,0,0,0,.291-.291v-.383a.292.292,0,0,0-.291-.291Z" transform="translate(673.119 -1004.265)" fill="#5188db"/>
          </g>
          <g id="Group_4232" data-name="Group 4232" transform="translate(6.201)">
            <path id="Path_3646" data-name="Path 3646" d="M-668.06,952.133h-18.357c-3.374,0-3.883,1.869-3.883,2.985a.989.989,0,0,0,.99.99.989.989,0,0,0,.991-.99c0-.4,0-1,1.9-1h6.412a1,1,0,0,0-.013.145,1.39,1.39,0,0,0,1.386,1.387h2.767a1.39,1.39,0,0,0,1.387-1.387.989.989,0,0,0-.013-.145h6.432a1.9,1.9,0,0,1,1.9,1.895v.733h-16.984a.663.663,0,0,0-.66.66.663.663,0,0,0,.66.66h16.984v13.306a.993.993,0,0,0,.99.99.994.994,0,0,0,.991-.99V956.009A3.884,3.884,0,0,0-668.06,952.133Zm-7.805,2.853h-2.767a.728.728,0,0,1-.726-.726.145.145,0,0,1,.139-.145h3.941a.141.141,0,0,1,.139.145A.728.728,0,0,1-675.865,954.986Z" transform="translate(690.3 -952.133)" fill="#5188db"/>
          </g>
          <g id="Group_4233" data-name="Group 4233" transform="translate(2.39 7.076)">
            <path id="Path_3647" data-name="Path 3647" d="M-688.569,963.159a.508.508,0,0,0-.456-.053l-3.163,1.175-3.262-1.175a.475.475,0,0,0-.449.06.479.479,0,0,0-.211.4v5.058a.5.5,0,0,0,.343.475l3.427,1.09a.6.6,0,0,0,.152.02.649.649,0,0,0,.159-.02l3.328-1.1a.489.489,0,0,0,.343-.469v-5.058A.505.505,0,0,0-688.569,963.159Zm-6.55,1.116,2.437.885v3.883l-2.437-.779Zm5.771,4-2.344.766v-3.883l2.344-.872Z" transform="translate(696.11 -963.074)" fill="#5188db"/>
          </g>
          <g id="Group_4234" data-name="Group 4234" transform="translate(11.398 14.3)">
            <path id="Path_3648" data-name="Path 3648" d="M-667.044,976.76l-7.362-2.45a.517.517,0,0,0-.317,0l-7.37,2.483a.5.5,0,0,0-.337.475.511.511,0,0,0,.343.469l2.688.878v3.3a.525.525,0,0,0,.185.39,7.078,7.078,0,0,0,4.517,1.717,8,8,0,0,0,4.762-1.73.5.5,0,0,0,.165-.376v-3.3l1.175-.39v1.836a.494.494,0,0,0,.5.5.5.5,0,0,0,.5-.5v-2.166l.561-.185a.5.5,0,0,0,.343-.469A.5.5,0,0,0-667.044,976.76Zm-11.364,4.913v-2.727l3.692,1.208a.383.383,0,0,0,.152.026.449.449,0,0,0,.159-.026l3.638-1.208.007,2.727A6.11,6.11,0,0,1-678.409,981.673Zm8.049-3.909-.415.139-3.79,1.261-3.844-1.268-.409-.132-1.545-.508,5.8-1.954,5.8,1.935Z" transform="translate(682.43 -974.286)" fill="#5188db"/>
          </g>
          <g id="Group_4235" data-name="Group 4235" transform="translate(28.767 23.51)">
            <path id="Path_3649" data-name="Path 3649" d="M-649.261,990.807l-2.18-2.186a.511.511,0,0,0-.7,0l-2.635,2.641a.345.345,0,0,0-.1.1c-.007.007-.007.007-.007.013a.226.226,0,0,0-.047.066v.007a.242.242,0,0,0-.027.059l-.026.073v.007l-1.083,3.222a.477.477,0,0,0,.125.5.493.493,0,0,0,.343.145.653.653,0,0,0,.159-.026l3.222-1.083.059-.02a.328.328,0,0,0,.119-.06.1.1,0,0,0,.053-.04.454.454,0,0,0,.08-.079l2.641-2.641A.488.488,0,0,0-649.261,990.807Zm-5.561,3.368.37-1.136.119-.337.977.977Zm2.431-.931-1.486-1.486,2.086-2.087,1.479,1.486Z" transform="translate(656.088 -988.483)" fill="#5188db"/>
            <path id="Path_3650" data-name="Path 3650" d="M-654.151,992.693a.342.342,0,0,0-.1.1.167.167,0,0,1,.032-.04Z" transform="translate(655.464 -989.913)" fill="#5188db"/>
          </g>
        </g>
      </g>
    </g>
  </g>
</svg>
