<svg width="183" height="172" viewBox="0 0 183 172" fill="none" xmlns="http://www.w3.org/2000/svg">
<path fill-rule="evenodd" clip-rule="evenodd" d="M72.456 2.04446C72.2008 5.86353 71.5865 9.58473 70.6469 13.1748C68.2574 22.3058 69.2247 32.5702 75.9183 39.2429L136.822 99.9549C143.653 106.765 154.211 107.622 163.513 105.023C168.467 103.638 173.68 102.871 179.063 102.809C145.858 107.27 120.257 135.632 120.257 169.955C120.257 170.443 120.262 170.929 120.272 171.414C119.861 168.583 119.648 165.688 119.648 162.744C119.648 158.893 120.012 155.126 120.708 151.477C122.345 142.899 121.03 133.571 114.836 127.396L49.5951 62.3599C43.2612 56.0465 33.6438 54.8263 24.8781 56.6605C20.8714 57.4991 16.7184 57.94 12.4623 57.94C9.05903 57.94 5.72216 57.6581 2.47365 57.1165C4.24456 57.2604 6.03483 57.3333 7.84287 57.3333C40.5753 57.3333 67.6875 33.3466 72.456 2.04446Z" fill="#98BAEE"/>
</svg>
