<svg xmlns="http://www.w3.org/2000/svg" xmlns:xlink="http://www.w3.org/1999/xlink" width="56" height="56" viewBox="0 0 56 56">
  <defs>
    <clipPath id="clip-path">
      <rect id="Rectangle_6388" data-name="Rectangle 6388" width="56" height="56" transform="translate(974 1949)" fill="#247cff" stroke="#707070" stroke-width="1"/>
    </clipPath>
  </defs>
  <g id="Mask_Group_94" data-name="Mask Group 94" transform="translate(-974 -1949)" clip-path="url(#clip-path)">
    <g id="project-management-timeline" transform="translate(983.001 1957)">
      <path id="Path_24162" data-name="Path 24162" d="M34.949,24.813l1.26,1.236a.813.813,0,0,1,0,1.171l-1.028,1.008a7.161,7.161,0,0,1,.63,1.659h1.326a.87.87,0,0,1,.862.846v1.756a.87.87,0,0,1-.862.846H35.712a6.961,6.961,0,0,1-.729,1.593l.928.911a.813.813,0,0,1,0,1.171l-1.26,1.236a.852.852,0,0,1-1.194,0l-1.028-1.008a7.482,7.482,0,0,1-1.691.618v1.3a.87.87,0,0,1-.862.846H28.086a.87.87,0,0,1-.862-.846V37.724a7.235,7.235,0,0,1-1.625-.715l-.928.911a.852.852,0,0,1-1.194,0l-1.26-1.236a.813.813,0,0,1,0-1.171L23.244,34.5a7.161,7.161,0,0,1-.63-1.659H21.288A.87.87,0,0,1,20.426,32V30.244a.87.87,0,0,1,.862-.846h1.426a6.961,6.961,0,0,1,.729-1.593l-.9-.878a.813.813,0,0,1,0-1.171l1.26-1.236a.852.852,0,0,1,1.194,0l1.028,1.008a7.482,7.482,0,0,1,1.691-.618v-1.3a.87.87,0,0,1,.862-.846h1.791a.87.87,0,0,1,.862.846v1.4a7.234,7.234,0,0,1,1.625.715l.928-.911a.811.811,0,0,1,1.161,0ZM13.728,26.732a.919.919,0,0,1-.829-.976.9.9,0,0,1,.829-.976h4.112a.919.919,0,0,1,.829.976.9.9,0,0,1-.829.976Zm1.227,9.789a.976.976,0,1,1,0,1.951H2.354A2.384,2.384,0,0,1,.7,37.789,2.237,2.237,0,0,1,0,36.163V2.309A2.237,2.237,0,0,1,.7.683,2.325,2.325,0,0,1,2.354,0H31.1a2.384,2.384,0,0,1,1.658.683,2.237,2.237,0,0,1,.7,1.626V18.016a.995.995,0,0,1-1.99,0V2.309a.293.293,0,0,0-.1-.228.3.3,0,0,0-.232-.1H2.354a.3.3,0,0,0-.232.1.251.251,0,0,0-.1.228V36.228a.293.293,0,0,0,.1.228.3.3,0,0,0,.232.1h12.6V36.52ZM6.234,24.1H9.782a.31.31,0,0,1,.332.325v2.992a.31.31,0,0,1-.332.325H6.234a.31.31,0,0,1-.332-.325V24.423a.31.31,0,0,1,.332-.325Zm0-17.2H9.782a.31.31,0,0,1,.332.325v2.992a.31.31,0,0,1-.332.325H6.234a.31.31,0,0,1-.332-.325V7.22a.31.31,0,0,1,.332-.325Zm7.494,2.634a.919.919,0,0,1-.829-.976.9.9,0,0,1,.829-.976H25.234a.919.919,0,0,1,.829.976.9.9,0,0,1-.829.976ZM7.262,18.667a.581.581,0,0,1-.763-.1L6.433,18.5,5.372,17.431a.583.583,0,0,1,.1-.846.718.718,0,0,1,.928-.033l.564.585L8.82,15.675a.59.59,0,0,1,.829.2.646.646,0,0,1-.066.911L7.262,18.667Zm5.9-.846a.919.919,0,0,1-.829-.976.9.9,0,0,1,.829-.976H24.67a.919.919,0,0,1,.829.976.9.9,0,0,1-.829.976ZM29.213,27.935A3.448,3.448,0,1,1,25.7,31.382a3.483,3.483,0,0,1,3.515-3.447Z" fill="#247cff" fill-rule="evenodd"/>
    </g>
  </g>
</svg>
