<svg xmlns="http://www.w3.org/2000/svg" xmlns:xlink="http://www.w3.org/1999/xlink" width="120" height="121" viewBox="0 0 120 121">
  <defs>
    <filter id="Ellipse_624" x="0" y="0" width="120" height="121" filterUnits="userSpaceOnUse">
      <feOffset dx="2" dy="2" input="SourceAlpha"/>
      <feGaussianBlur stdDeviation="7.5" result="blur"/>
      <feFlood flood-opacity="0.2"/>
      <feComposite operator="in" in2="blur"/>
      <feComposite in="SourceGraphic"/>
    </filter>
    <clipPath id="clip-path">
      <rect id="Rectangle_6353" data-name="Rectangle 6353" width="48" height="48" transform="translate(1103 3181)" fill="#fff"/>
    </clipPath>
  </defs>
  <g id="Group_15096" data-name="Group 15096" transform="translate(-1068.5 -3144.5)">
    <g transform="matrix(1, 0, 0, 1, 1068.5, 3144.5)" filter="url(#Ellipse_624)">
      <ellipse id="Ellipse_624-2" data-name="Ellipse 624" cx="37.5" cy="38" rx="37.5" ry="38" transform="translate(20.5 20.5)" fill="#fff"/>
    </g>
    <g id="Mask_Group_59" data-name="Mask Group 59" transform="translate(0 -2)" clip-path="url(#clip-path)">
      <g id="Group_4609" data-name="Group 4609" transform="translate(1108 3189)">
        <g id="Group_4622" data-name="Group 4622" transform="translate(0 0)">
          <g id="Group_4609-2" data-name="Group 4609" transform="translate(4.093 6.223)">
            <path id="Path_4019" data-name="Path 4019" d="M678,84.621h-3.778a.6.6,0,0,1,0-1.193H678a1.734,1.734,0,0,0,.868-.223,2.187,2.187,0,0,0,1.075-1.929,2.213,2.213,0,0,0-.977-1.868,1.769,1.769,0,0,0-.966-.291H653.468a.6.6,0,0,1,0-1.192H678a2.916,2.916,0,0,1,1.593.475,3.417,3.417,0,0,1,1.522,2.875,3.378,3.378,0,0,1-1.678,2.972,2.913,2.913,0,0,1-1.436.374Z" transform="translate(-652.883 -77.926)" fill="#5188db"/>
          </g>
          <g id="Group_4610" data-name="Group 4610" transform="translate(0)">
            <path id="Path_4020" data-name="Path 4020" d="M679.076,92.592h-1.453a.6.6,0,0,1,0-1.193h1.453a8.411,8.411,0,0,0,0-16.753H650.46a.6.6,0,0,1,0-1.193h28.616a9.6,9.6,0,0,1,0,19.138Z" transform="translate(-649.874 -73.453)" fill="#5188db"/>
          </g>
          <g id="Group_4611" data-name="Group 4611" transform="translate(20.154 17.947)">
            <path id="Path_4021" data-name="Path 4021" d="M672.629,87.542H665.2a.6.6,0,0,1,0-1.193h7.424a.6.6,0,0,1,0,1.193Z" transform="translate(-664.622 -86.349)" fill="#5188db"/>
          </g>
          <g id="Group_4612" data-name="Group 4612" transform="translate(2.045 3.11)">
            <path id="Path_4022" data-name="Path 4022" d="M678.537,88.607h-13a.6.6,0,0,1,0-1.192h13a5.291,5.291,0,0,0,0-10.534H651.963a.6.6,0,0,1,0-1.193h26.574a6.48,6.48,0,0,1,0,12.92Z" transform="translate(-651.378 -75.688)" fill="#5188db"/>
          </g>
          <g id="Group_4613" data-name="Group 4613" transform="translate(8.412 12.978)">
            <path id="Path_4023" data-name="Path 4023" d="M656.618,93.125a.589.589,0,0,1-.582-.6V83.375a.583.583,0,1,1,1.165,0v9.154a.589.589,0,0,1-.583.6Z" transform="translate(-656.035 -82.779)" fill="#5188db"/>
          </g>
          <g id="Group_4614" data-name="Group 4614" transform="translate(8.412 6.224)">
            <path id="Path_4024" data-name="Path 4024" d="M656.618,82.949a.575.575,0,0,1-.412-.174.6.6,0,0,1-.17-.422V78.522a.583.583,0,1,1,1.165,0v3.83a.6.6,0,0,1-.17.422.576.576,0,0,1-.412.175Z" transform="translate(-656.035 -77.926)" fill="#5188db"/>
          </g>
          <g id="Group_4615" data-name="Group 4615" transform="translate(12.017 13.349)">
            <path id="Path_4025" data-name="Path 4025" d="M659.259,90.477a.589.589,0,0,1-.582-.6V83.664a.6.6,0,0,1,.283-.538.571.571,0,0,1,.6,0,.6.6,0,0,1,.283.538V89.88a.589.589,0,0,1-.581.6Z" transform="translate(-658.676 -83.041)" fill="#5188db"/>
          </g>
          <g id="Group_4616" data-name="Group 4616" transform="translate(12.017 22.887)">
            <path id="Path_4026" data-name="Path 4026" d="M659.259,99.007a.589.589,0,0,1-.582-.6V90.517a.6.6,0,0,1,.283-.538.571.571,0,0,1,.6,0,.6.6,0,0,1,.283.538v7.895a.6.6,0,0,1-.17.421.575.575,0,0,1-.411.175Z" transform="translate(-658.676 -89.894)" fill="#5188db"/>
          </g>
          <g id="Group_4617" data-name="Group 4617" transform="translate(12.017 6.198)">
            <path id="Path_4027" data-name="Path 4027" d="M659.259,82.952a.589.589,0,0,1-.582-.6V78.525a.6.6,0,0,1,.283-.538.571.571,0,0,1,.6,0,.6.6,0,0,1,.283.538v3.83a.6.6,0,0,1-.169.422.575.575,0,0,1-.412.175Z" transform="translate(-658.676 -77.902)" fill="#5188db"/>
          </g>
          <g id="Group_4618" data-name="Group 4618" transform="translate(15.62 13.376)">
            <path id="Path_4028" data-name="Path 4028" d="M661.9,90.474a.589.589,0,0,1-.582-.6V83.661a.583.583,0,1,1,1.165,0v6.216a.6.6,0,0,1-.17.422.576.576,0,0,1-.412.175Z" transform="translate(-661.314 -83.065)" fill="#5188db"/>
          </g>
          <g id="Group_4619" data-name="Group 4619" transform="translate(15.62 22.913)">
            <path id="Path_4029" data-name="Path 4029" d="M661.9,94.6a.589.589,0,0,1-.582-.6V90.514a.583.583,0,1,1,1.165,0V94A.589.589,0,0,1,661.9,94.6Z" transform="translate(-661.314 -89.918)" fill="#5188db"/>
          </g>
          <g id="Group_4620" data-name="Group 4620" transform="translate(15.62 6.218)">
            <path id="Path_4030" data-name="Path 4030" d="M661.9,82.951a.589.589,0,0,1-.582-.6V78.518a.583.583,0,1,1,1.165,0v3.835a.6.6,0,0,1-.17.423A.575.575,0,0,1,661.9,82.951Z" transform="translate(-661.314 -77.922)" fill="#5188db"/>
          </g>
          <g id="Group_4621" data-name="Group 4621" transform="translate(8.412 24.991)">
            <path id="Path_4031" data-name="Path 4031" d="M656.618,98.416a.589.589,0,0,1-.582-.6V92.007a.583.583,0,1,1,1.165,0v5.817a.589.589,0,0,1-.583.591Z" transform="translate(-656.035 -91.411)" fill="#5188db"/>
          </g>
        </g>
        <ellipse id="Ellipse_72" data-name="Ellipse 72" cx="1.219" cy="1.247" rx="1.219" ry="1.247" transform="translate(7.773 21.48)" fill="#5188db"/>
        <ellipse id="Ellipse_73" data-name="Ellipse 73" cx="1.219" cy="1.247" rx="1.219" ry="1.247" transform="translate(14.899 26.246)" fill="#5188db"/>
        <path id="Path_4032" data-name="Path 4032" d="M669.866,82.657a1.221,1.221,0,1,1-1.223-1.245,1.235,1.235,0,0,1,1.223,1.245Z" transform="translate(-643.459 -70.336)" fill="#5188db"/>
        <ellipse id="Ellipse_74" data-name="Ellipse 74" cx="1.219" cy="1.247" rx="1.219" ry="1.247" transform="translate(18.934 17.295)" fill="#5188db"/>
      </g>
    </g>
  </g>
</svg>
