<svg xmlns="http://www.w3.org/2000/svg" width="44" height="44" viewBox="0 0 44 44">
  <g id="Group_12963" data-name="Group 12963" transform="translate(-849 -178)">
    <rect id="Rectangle_5417" data-name="Rectangle 5417" width="44" height="44" rx="12" transform="translate(849 178)" fill="#e8f2ff"/>
    <g id="vuesax_bold_call" data-name="vuesax/bold/call" transform="translate(750.269 -0.731)">
      <g id="call" transform="translate(108 188)">
        <path id="Vector" d="M11.872,15.7,9.909,17.658c-.414.414.028.873-.581.717-.117-.117-1.148-.929-1.265-1.046-1.093-1.1-4.35-4.216-5.231-5.426A18.915,18.915,0,0,1,.753,8.286,9.109,9.109,0,0,1,0,4.817,5.488,5.488,0,0,1,.382,2.769,4.883,4.883,0,0,1,1.6,1,3.109,3.109,0,0,1,3.809,0a1.994,1.994,0,0,1,.859.191,1.73,1.73,0,0,1,.711.594L7.84,4.254A3.631,3.631,0,0,1,8.265,5a1.677,1.677,0,0,1,.149.647,1.44,1.44,0,0,1-.223.753,3.609,3.609,0,0,1-.594.753l-.806.838a.568.568,0,0,0-.17.424.963.963,0,0,0,.032.244c.032.085.064.149.085.212a8.8,8.8,0,0,0,.987,1.358c.477.552,3.257,3.07,3.809,3.633.106.106.223.212.329.318A1.063,1.063,0,0,1,11.872,15.7Z" transform="translate(2.122 2.122)" fill="#1e62c7"/>
        <path id="Vector-2" data-name="Vector" d="M13.124,4.551a2.694,2.694,0,0,1-.159.9,2.591,2.591,0,0,1-.106.255,4.378,4.378,0,0,1-.721,1.082A4.783,4.783,0,0,1,10.4,8.042c-.011,0-.021.011-.032.011a5.36,5.36,0,0,1-2.037.393A8.842,8.842,0,0,1,4.87,7.671a18.635,18.635,0,0,1-3.65-2.1C.806,5.262.361,4.68-.031,4.352L3.406,1.133a6.6,6.6,0,0,0,.848.533c.053.021.117.053.191.085a.733.733,0,0,0,.265.042.584.584,0,0,0,.435-.18l.806-.8A3.255,3.255,0,0,1,6.716.223,1.413,1.413,0,0,1,7.469,0a1.693,1.693,0,0,1,.647.138,4.1,4.1,0,0,1,.743.414l3.512,2.493a1.609,1.609,0,0,1,.584.679A2.177,2.177,0,0,1,13.124,4.551Z" transform="translate(10.185 14.896)" fill="#1e62c7"/>
        <path id="Vector-3" data-name="Vector" d="M0,0H25.463V25.463H0Z" transform="translate(25.463 25.463) rotate(180)" fill="none" opacity="0"/>
      </g>
    </g>
  </g>
</svg>
