<svg xmlns="http://www.w3.org/2000/svg" xmlns:xlink="http://www.w3.org/1999/xlink" width="56" height="56" viewBox="0 0 56 56">
  <defs>
    <clipPath id="clip-path">
      <rect id="Rectangle_6387" data-name="Rectangle 6387" width="56" height="56" transform="translate(720 1953)" fill="#247cff" stroke="#707070" stroke-width="1"/>
    </clipPath>
  </defs>
  <g id="Mask_Group_93" data-name="Mask Group 93" transform="translate(-720 -1953)" clip-path="url(#clip-path)">
    <g id="presentation-learning" transform="translate(724 1962)">
      <path id="Path_24161" data-name="Path 24161" d="M10.452,8.817c-1.879,0-3.937-.3-5.687.384V9.155a5.629,5.629,0,0,0-1.187.714l-.012.012a7.027,7.027,0,0,0-1.012.972v0l-.105.127h0l-.051.061,0,.008a1.509,1.509,0,0,0-.105.127l0,0c-.016.019-.027.038-.043.058l-.008.008v0c-.016.019-.027.038-.043.058l-.012.019-.039.054,0,.008c-.016.019-.031.042-.047.061l-.012.015-.035.046-.012.015a.5.5,0,0,0-.039.058l0,0L1.98,11.6c-.012.015-.023.035-.035.05l-.016.023c-.016.019-.027.042-.043.061v0c-.016.019-.027.042-.043.065l-.008.015-.035.054-.008.015c-.012.023-.027.042-.039.065l-.012.019-.027.046-.016.027a.536.536,0,0,1-.039.061l-.008.012-.031.054-.012.023c-.012.023-.023.042-.035.065v0h0c-.012.023-.027.046-.039.069l-.008.015-.031.058-.008.015-.043.065-.012.027-.027.054-.008.015-.035.069-.012.019-.027.054-.008.019c-.012.023-.023.05-.035.073A9.619,9.619,0,0,0,.331,16.7,28.615,28.615,0,0,0,0,21.105a.967.967,0,0,0,.02.1v0c.008.031.016.065.023.1v0c.008.031.016.061.023.088l0,.008a.708.708,0,0,0,.027.084l0,.008c.008.027.02.05.027.077l0,.012a.539.539,0,0,0,.031.069l.008.015c.012.023.02.042.031.065.66,1.275,2.5.929,3.129-.108l0-.008,0-.008a.119.119,0,0,0,.02-.038.135.135,0,0,0,.016-.035c0-.008.008-.019.012-.027a.371.371,0,0,0,.02-.042l.008-.019c.008-.019.016-.035.023-.054l0-.012a.284.284,0,0,0,.02-.061v0a.458.458,0,0,0,.02-.069v0a.44.44,0,0,0,.016-.069h0c0-.023.008-.05.012-.073l.355-4.547a5,5,0,0,1,.383-1.8,3.007,3.007,0,0,1,.48-.787l.027,1.217h0l.16,7.085L2.593,35.921a2.069,2.069,0,0,0,4.086.453L8.781,24.2l2.055,11.985c.863,2.991,4.426,1.874,4.086-.4l-.609-4.577L12.71,22.2l.125-7.15v.138l0-.192,1.578,2.143a1.953,1.953,0,0,0,1.262.768l3.715.7v5.868H16.175a.734.734,0,1,0,0,1.467H31.191V29.22a.745.745,0,0,0-.25.154h-.012l-4.656,4.343a.712.712,0,0,0-.027,1.029.742.742,0,0,0,1.047.027l3.887-3.625v3.306a.746.746,0,0,0,1.492,0V31.29l3.742,3.487a.739.739,0,0,0,1.047-.027.71.71,0,0,0-.027-1.029l-4.656-4.351c-.039-.027-.066-.05-.105-.077V25.936H47.253a.734.734,0,1,0,0-1.467H44V6.332h3.18a.734.734,0,1,0,0-1.467H32.566V2.73a.746.746,0,0,0-1.492,0V4.865H16.179a.734.734,0,1,0,0,1.467H19.4v8.348l-2.258-.426-3.164-4.3a1.946,1.946,0,0,0-1.145-.745,6.648,6.648,0,0,0-2.379-.4Zm10.922,6.24,4.547-4.689a.492.492,0,0,1,.684-.015.472.472,0,0,1,.016.672l-4.371,4.5a1.91,1.91,0,0,1,.578,1.763,1.954,1.954,0,0,1-1.941,1.567v5.618H42.515V6.332H20.886v8.633l.383.073a1.014,1.014,0,0,1,.105.019ZM8.785,0a4.114,4.114,0,0,1,4.148,4.078,4.149,4.149,0,0,1-8.3,0A4.111,4.111,0,0,1,8.785,0Z" transform="translate(0)" fill="#247cff" fill-rule="evenodd"/>
    </g>
  </g>
</svg>
