<svg xmlns="http://www.w3.org/2000/svg" xmlns:xlink="http://www.w3.org/1999/xlink" width="72" height="72" viewBox="0 0 72 72">
  <defs>
    <linearGradient id="linear-gradient" x1="0.5" x2="0.5" y2="1" gradientUnits="objectBoundingBox">
      <stop offset="0" stop-color="#e8f2ff"/>
      <stop offset="1" stop-color="#e8f2ff"/>
    </linearGradient>
    <clipPath id="clip-path">
      <rect id="Rectangle_5431" data-name="Rectangle 5431" width="58" height="58" transform="translate(1259.531 375.323)" fill="#1e62c7"/>
    </clipPath>
    <clipPath id="clip-path-2">
      <path id="Path_4328" data-name="Path 4328" d="M22.158,47.779l-3.527-5.468a.011.011,0,0,1,0-.013l3.34-3.613a.009.009,0,0,1,.014,0L25.627,42.4a.011.011,0,0,1,0,.013l-3.455,5.366a.009.009,0,0,1-.008,0,.01.01,0,0,1-.008,0m1.742.872c2.587-3.883,5.089-7.653,6.5-12.008a.009.009,0,0,1,0-.006h.007c5.944,1.354,10.88,4,11.915,12.019a.011.011,0,0,1,0,.008.01.01,0,0,1-.007,0H23.9a.01.01,0,0,1-.008-.006.011.011,0,0,1,0-.01m-21.822,0c-.118-5.617,5.068-10.926,11.834-12.023a.01.01,0,0,1,.011.006c1.426,4.34,3.893,8.13,6.524,12.015a.011.011,0,0,1,0,.01.01.01,0,0,1-.008.006H2.082a.01.01,0,0,1-.01-.01M22.131,35.6l-1.6-1.632a.011.011,0,0,1,0-.011.01.01,0,0,1,.009-.006h3.116a.01.01,0,0,1,.009.006.011.011,0,0,1,0,.011L22.145,35.6h-.014m-4.656,4.635a28.479,28.479,0,0,1-1.745-4.463c-.182-.8.453-1.8.757-2.822a.01.01,0,0,1,.007-.006.01.01,0,0,1,.009,0c.3.253.432.342.54.453,1.208,1.222,2.413,2.447,3.769,3.824a.01.01,0,0,1,0,.015l-3.322,3h-.006a.009.009,0,0,1-.008-.006m9.291.089L23.535,37a.011.011,0,0,1,0-.014l3.915-4.28a.01.01,0,0,1,.015,0c.883,1.427,1.744,2.733.706,4.476a26.7,26.7,0,0,0-1.388,3.128.009.009,0,0,1-.008.006h-.007M21.083,26.061a8.939,8.939,0,0,1,.958.013c.617.038,1.157.336,1.026.993-.077.372-.122.767-1,.929a4.016,4.016,0,0,1-.944.025c-1.347.016-1.918-.277-1.829-1,.119-.964.784-.961,1.434-.956h.13c.077,0,.154,0,.224,0m-8.415-.146c-1.036-.072-1.167-.311-1.028-1.844a.011.011,0,0,1,0-.007.011.011,0,0,1,.008,0c1.215.189.694,1.213,1.025,1.839a.01.01,0,0,1,0,.01.009.009,0,0,1-.008,0h0M9.635,20.267V15.908a.009.009,0,0,1,.009-.01h1.9a.01.01,0,0,1,.009.01c.154,2.024.308,4.006.463,5.984a.01.01,0,0,1-.007.01,3.7,3.7,0,0,1-1.157.238c-.854,0-1.211-.594-1.212-1.872M32.314,22.09a.01.01,0,0,1-.009-.01c.163-2.122.316-4.126.473-6.171a.01.01,0,0,1,.01-.01h1.871a.01.01,0,0,1,.01.01c0,1.772.052,3.566-.052,5.346-.018.3-.682.638-1.1.809a1.094,1.094,0,0,1-.413.066c-.236,0-.5-.039-.786-.04m-17.5,3.865a1.522,1.522,0,0,1-.336-.885Q14,21,13.567,16.925a1.093,1.093,0,0,1,.123-.655c1.337-2.084,2.893-3.9,5.483-4.266a1.417,1.417,0,0,1,1.038.243A17.291,17.291,0,0,0,29.877,16.7c.278.035.548.129,1.039.25a.009.009,0,0,1,.006,0,.01.01,0,0,1,0,.007c-.424,3.019-.638,6.053-1.321,8.972a7.441,7.441,0,0,1-5.771,5.876,7.132,7.132,0,0,1-7.44-2.578c-.261-.308-.472-.659-.771-1.083a.011.011,0,0,1,0-.01.01.01,0,0,1,.007-.006c1.026-.136,1.8-.29,2.425.758a2.771,2.771,0,0,0,1.757,1.023,9.848,9.848,0,0,0,2.776.024,2.854,2.854,0,0,0,2.445-3.189,2.934,2.934,0,0,0-2.607-2.6,7.356,7.356,0,0,0-2.5.032,5.368,5.368,0,0,0-2.067,1.246,4.979,4.979,0,0,1-2.411.689.973.973,0,0,1-.637-.159M13.629,12.848A7.509,7.509,0,0,1,16,8.1a7.8,7.8,0,0,1,5.325-2.17c2.468-.09,4.81.189,6.756,1.952a8.288,8.288,0,0,1,2.736,6.919.01.01,0,0,1,0,.007.01.01,0,0,1-.007,0,14.314,14.314,0,0,1-8.9-3.764,3.386,3.386,0,0,0-3.837-.828,12.875,12.875,0,0,0-2.366,1.051,20.852,20.852,0,0,0-2.06,1.585H13.64a.01.01,0,0,1-.008,0,.01.01,0,0,1,0-.008M9.753,13.8A12.64,12.64,0,0,1,21.5,1.99,12.677,12.677,0,0,1,34.622,13.824a.01.01,0,0,1,0,.008.01.01,0,0,1-.007,0h-1.8a.01.01,0,0,1-.009-.01A10.77,10.77,0,0,0,30.657,7.8,9.556,9.556,0,0,0,23.07,3.97a11.777,11.777,0,0,0-5.744.881C13.7,6.644,11.86,9.672,11.526,13.8a.01.01,0,0,1-.01.01H9.763a.01.01,0,0,1-.01-.01M22.178,0A14.212,14.212,0,0,0,8.184,11.491c-.617,3.254-.386,6.69-.4,10.044a2.664,2.664,0,0,0,1.086,1.858,1.724,1.724,0,0,1,.783,1.7c.008,1.329.869,2.711,2.041,2.749a2.973,2.973,0,0,1,2.719,1.991c.149.286.453.493.574.785a1.508,1.508,0,0,1,.144,1c-1.2,2.784-1.215,2.779-4.019,3.75l-1.392.476A14.54,14.54,0,0,0,.012,48.92c-.076,1.549.188,1.8,1.743,1.8H42.589c1.371,0,1.735-.216,1.739-1.374V49.31c0-.159-.007-.331-.019-.525a14.552,14.552,0,0,0-9.654-12.918c-1.157-.4-2.313-.771-3.453-1.2a1.57,1.57,0,0,1-.8-.6c-.532-.966-.986-1.981-1.475-2.983a.011.011,0,0,1,0-.011,11.538,11.538,0,0,0,2.959-6.348c.034-.248.456-.5.75-.628a1.2,1.2,0,0,1,.551-.039,2.589,2.589,0,0,0,.308.011,2.962,2.962,0,0,0,3.122-3.317c.005-2.086.025-4.159-.007-6.238A14.764,14.764,0,0,0,23.176.033Q22.7,0,22.228,0Z" transform="translate(0 0.002)" fill="#1e62c7"/>
    </clipPath>
    <clipPath id="clip-path-3">
      <path id="Path_4329" data-name="Path 4329" d="M183.6,208.622h0a.908.908,0,0,0,.134,1.2,10.71,10.71,0,0,1,2.292,2.79.854.854,0,0,0,1.165.337.9.9,0,0,0,.357-1.188,12.5,12.5,0,0,0-2.681-3.289.84.84,0,0,0-.564-.216.86.86,0,0,0-.7.368" transform="translate(-183.433 -208.252)" fill="#1e62c7"/>
    </clipPath>
    <clipPath id="clip-path-4">
      <path id="Path_4330" data-name="Path 4330" d="M170.731,200.287a.867.867,0,1,0,.867-.891.879.879,0,0,0-.867.891" transform="translate(-170.731 -199.396)" fill="#1e62c7"/>
    </clipPath>
  </defs>
  <g id="Group_13241" data-name="Group 13241" transform="translate(-1146 -246)">
    <g id="Group_13236" data-name="Group 13236">
      <rect id="Rectangle_5435" data-name="Rectangle 5435" width="72" height="72" rx="18" transform="translate(1146 246)" fill="url(#linear-gradient)"/>
      <g id="Mask_Group_36" data-name="Mask Group 36" transform="translate(-105.531 -122.323)" clip-path="url(#clip-path)">
        <g id="Group_4790" data-name="Group 4790" transform="translate(1266.367 378.17)">
          <g id="Group_4785" data-name="Group 4785" transform="translate(0)">
            <g id="Group_4784" data-name="Group 4784" clip-path="url(#clip-path-2)">
              <rect id="Rectangle_676" data-name="Rectangle 676" width="44.392" height="50.721" transform="translate(-0.065 0.001)" fill="#1e62c7"/>
            </g>
          </g>
          <g id="Group_4787" data-name="Group 4787" transform="translate(35.341 41.234)">
            <g id="Group_4786" data-name="Group 4786" transform="translate(0)" clip-path="url(#clip-path-3)">
              <rect id="Rectangle_677" data-name="Rectangle 677" width="4.462" height="4.907" transform="translate(-0.102 0.002)" fill="#1e62c7"/>
            </g>
          </g>
          <g id="Group_4789" data-name="Group 4789" transform="translate(32.892 39.483)">
            <g id="Group_4788" data-name="Group 4788" clip-path="url(#clip-path-4)">
              <rect id="Rectangle_678" data-name="Rectangle 678" width="1.734" height="1.782" transform="translate(0 0)" fill="#1e62c7"/>
            </g>
          </g>
        </g>
      </g>
    </g>
  </g>
</svg>
