<svg xmlns="http://www.w3.org/2000/svg" xmlns:xlink="http://www.w3.org/1999/xlink" width="717.947" height="715.598" viewBox="0 0 717.947 715.598"><defs><linearGradient id="a" x1="0.5" x2="0.511" y2="0.556" gradientUnits="objectBoundingBox"><stop offset="0" stop-color="#b2ccf3"/><stop offset="1" stop-color="#76a4e9"/></linearGradient></defs><g transform="translate(11387 17890)"><circle cx="351" cy="351" r="351" transform="translate(-11379 -17883)" opacity="0.4" fill="url(#a)"/><path d="M341.691,707.88C152.141,702.947,0,547.77,0,357.062c0-4.578.087-9.12.261-13.655a9.8,9.8,0,0,1,1.216-18.752C17.556,149.131,162.927,10.986,341.532,6.25a9.8,9.8,0,0,1,18.932,0c178.57,4.735,323.918,142.8,340.046,318.276A9.8,9.8,0,1,1,702,344.012l-.238,0c.158,4.327.238,8.689.238,13.054C702,547.77,549.855,702.947,360.305,707.88a9.806,9.806,0,0,1-18.614,0Zm18.937-4.911a348.227,348.227,0,0,0,60.127-6.9A344.238,344.238,0,0,0,544.5,644.007,347.081,347.081,0,0,0,669.9,491.756a344.233,344.233,0,0,0,20.164-64.949,348.581,348.581,0,0,0,7.032-69.745q0-7.277-.3-14.544a9.8,9.8,0,0,1-1.021-15.876A345.628,345.628,0,0,0,360.514,11.154a9.8,9.8,0,0,1-19.033,0,348.245,348.245,0,0,0-60.239,6.9A344.192,344.192,0,0,0,157.495,70.119,347.086,347.086,0,0,0,32.1,222.37,343.736,343.736,0,0,0,6.389,324.8a9.8,9.8,0,0,1-1.242,19.1Q4.9,350.474,4.9,357.062a348.584,348.584,0,0,0,7.032,69.745A344.067,344.067,0,0,0,64.005,550.533,347.1,347.1,0,0,0,216.283,675.91a344.409,344.409,0,0,0,64.96,20.162,348.207,348.207,0,0,0,60.125,6.9,9.8,9.8,0,0,1,19.261,0Z" transform="translate(-11380.853 -17889)" fill="#bcd4f3"/></g></svg>