<svg xmlns="http://www.w3.org/2000/svg" xmlns:xlink="http://www.w3.org/1999/xlink" width="1366" height="1377" viewBox="0 0 1366 1377">
  <defs>
    <linearGradient id="linear-gradient" y1="0.5" x2="1" y2="0.5" gradientUnits="objectBoundingBox">
      <stop offset="0" stop-color="#247cff"/>
      <stop offset="1" stop-color="#1e62c7"/>
    </linearGradient>
    <clipPath id="clip-path">
      <rect id="Rectangle_6824" data-name="Rectangle 6824" width="416" height="547" transform="translate(950 2386)" fill="#fff" stroke="#707070" stroke-width="1"/>
    </clipPath>
    <clipPath id="clip-path-2">
      <path id="Subtraction_12" data-name="Subtraction 12" d="M14371.5,8447a275.45,275.45,0,0,1-55.12-5.557,272.029,272.029,0,0,1-97.8-41.152,274.286,274.286,0,0,1-99.09-120.332,272.038,272.038,0,0,1-15.937-51.339,276.158,276.158,0,0,1,0-110.239,272.015,272.015,0,0,1,41.152-97.8,274.285,274.285,0,0,1,120.333-99.091,272.071,272.071,0,0,1,51.34-15.937,276.161,276.161,0,0,1,110.239,0,272.015,272.015,0,0,1,97.8,41.153,274.29,274.29,0,0,1,99.09,120.333,272.108,272.108,0,0,1,15.937,51.34,276.158,276.158,0,0,1,0,110.239,272.02,272.02,0,0,1-41.152,97.8,274.286,274.286,0,0,1-120.332,99.09,272.1,272.1,0,0,1-51.338,15.937A275.462,275.462,0,0,1,14371.5,8447Zm0-395.673a122.174,122.174,0,1,0,122.174,122.174A122.313,122.313,0,0,0,14371.5,8051.327Z" transform="translate(-13112.004 -6892.002)" fill="rgba(112,170,255,0.25)"/>
    </clipPath>
    <clipPath id="clip-path-3">
      <rect width="547" height="547" fill="none"/>
    </clipPath>
    <clipPath id="clip-path-4">
      <rect id="Rectangle_6823" data-name="Rectangle 6823" width="272" height="294" transform="translate(0 2144)" fill="#fff"/>
    </clipPath>
  </defs>
  <g id="Group_15411" data-name="Group 15411" transform="translate(0 -2144)">
    <rect id="Rectangle_5912" data-name="Rectangle 5912" width="1366" height="1377" transform="translate(0 2144)" fill="url(#linear-gradient)"/>
    <g id="Mask_Group_180" data-name="Mask Group 180" clip-path="url(#clip-path)">
      <g id="Mask_Group_46" data-name="Mask Group 46" transform="translate(-507.008 2177.331) rotate(-30)" opacity="0.05" clip-path="url(#clip-path-2)">
        <g id="Repeat_Grid_2" data-name="Repeat Grid 2" transform="translate(986 1008)" clip-path="url(#clip-path-3)">
          <g transform="translate(-986 -1008)">
            <rect id="Rectangle_5914" data-name="Rectangle 5914" width="547" height="18" transform="translate(986 1008)" fill="#fff"/>
          </g>
          <g transform="translate(-986 -970)">
            <rect id="Rectangle_5915" data-name="Rectangle 5915" width="547" height="18" transform="translate(986 1008)" fill="#fff"/>
          </g>
          <g transform="translate(-986 -932)">
            <rect id="Rectangle_5916" data-name="Rectangle 5916" width="547" height="18" transform="translate(986 1008)" fill="#fff"/>
          </g>
          <g transform="translate(-986 -894)">
            <rect id="Rectangle_5917" data-name="Rectangle 5917" width="547" height="18" transform="translate(986 1008)" fill="#fff"/>
          </g>
          <g transform="translate(-986 -856)">
            <rect id="Rectangle_5918" data-name="Rectangle 5918" width="547" height="18" transform="translate(986 1008)" fill="#fff"/>
          </g>
          <g transform="translate(-986 -818)">
            <rect id="Rectangle_5919" data-name="Rectangle 5919" width="547" height="18" transform="translate(986 1008)" fill="#fff"/>
          </g>
          <g transform="translate(-986 -780)">
            <rect id="Rectangle_5920" data-name="Rectangle 5920" width="547" height="18" transform="translate(986 1008)" fill="#fff"/>
          </g>
          <g transform="translate(-986 -742)">
            <rect id="Rectangle_5921" data-name="Rectangle 5921" width="547" height="18" transform="translate(986 1008)" fill="#fff"/>
          </g>
          <g transform="translate(-986 -704)">
            <rect id="Rectangle_5922" data-name="Rectangle 5922" width="547" height="18" transform="translate(986 1008)" fill="#fff"/>
          </g>
          <g transform="translate(-986 -666)">
            <rect id="Rectangle_5923" data-name="Rectangle 5923" width="547" height="18" transform="translate(986 1008)" fill="#fff"/>
          </g>
          <g transform="translate(-986 -628)">
            <rect id="Rectangle_5924" data-name="Rectangle 5924" width="547" height="18" transform="translate(986 1008)" fill="#fff"/>
          </g>
          <g transform="translate(-986 -590)">
            <rect id="Rectangle_5925" data-name="Rectangle 5925" width="547" height="18" transform="translate(986 1008)" fill="#fff"/>
          </g>
          <g transform="translate(-986 -552)">
            <rect id="Rectangle_5926" data-name="Rectangle 5926" width="547" height="18" transform="translate(986 1008)" fill="#fff"/>
          </g>
          <g transform="translate(-986 -514)">
            <rect id="Rectangle_5927" data-name="Rectangle 5927" width="547" height="18" transform="translate(986 1008)" fill="#fff"/>
          </g>
          <g transform="translate(-986 -476)">
            <rect id="Rectangle_5928" data-name="Rectangle 5928" width="547" height="18" transform="translate(986 1008)" fill="#fff"/>
          </g>
        </g>
      </g>
    </g>
    <g id="Mask_Group_179" data-name="Mask Group 179" clip-path="url(#clip-path-4)">
      <path id="Path_27142" data-name="Path 27142" d="M73.472,3.794,212.918.025c37.469-1.013,67.023,28.541,66.01,66.01l-3.769,139.446c-1.013,37.469-32.208,68.665-69.677,69.677L66.035,278.927C28.566,279.94-.988,250.387.025,212.918L3.794,73.472C4.807,36,36,4.807,73.472,3.794Z" transform="translate(-87.98 2141.049) rotate(-45)" fill="rgba(255,255,255,0.05)"/>
      <path id="Path_27144" data-name="Path 27144" d="M72.1,2.419,160.66.025c37.469-1.013,67.023,28.541,66.01,66.01L224.276,154.6c-1.013,37.469-32.208,68.665-69.677,69.677l-88.563,2.394C28.566,227.682-.988,198.129.025,160.66L2.419,72.1C3.432,34.627,34.627,3.432,72.1,2.419Z" transform="translate(-122.519 2303.903) rotate(-45)" fill="rgba(255,255,255,0.05)"/>
    </g>
  </g>
</svg>
