<svg xmlns="http://www.w3.org/2000/svg" xmlns:xlink="http://www.w3.org/1999/xlink" width="121" height="121" viewBox="0 0 121 121">
  <defs>
    <filter id="Ellipse_618" x="0" y="0" width="121" height="121" filterUnits="userSpaceOnUse">
      <feOffset dx="2" dy="2" input="SourceAlpha"/>
      <feGaussianBlur stdDeviation="7.5" result="blur"/>
      <feFlood flood-opacity="0.2"/>
      <feComposite operator="in" in2="blur"/>
      <feComposite in="SourceGraphic"/>
    </filter>
    <clipPath id="clip-path">
      <rect id="Rectangle_6346" data-name="Rectangle 6346" width="50" height="50" transform="translate(218 3183)" fill="#fff"/>
    </clipPath>
  </defs>
  <g id="Group_15088" data-name="Group 15088" transform="translate(-179.5 -3144.5)">
    <g transform="matrix(1, 0, 0, 1, 179.5, 3144.5)" filter="url(#Ellipse_618)">
      <circle id="Ellipse_618-2" data-name="Ellipse 618" cx="38" cy="38" r="38" transform="translate(20.5 20.5)" fill="#fff"/>
    </g>
    <g id="Mask_Group_52" data-name="Mask Group 52" transform="translate(-5 -5)" clip-path="url(#clip-path)">
      <g id="Group_14775" data-name="Group 14775" transform="translate(221.75 3186.751)">
        <g id="Group_4221" data-name="Group 4221" transform="translate(8.377 5.96)">
          <path id="Path_3636" data-name="Path 3636" d="M-440.277,113.667a.751.751,0,0,1-.74-.762V97.347a.752.752,0,0,1,.74-.763.752.752,0,0,1,.741.763v15.559A.751.751,0,0,1-440.277,113.667Z" transform="translate(441.017 -96.584)" fill="#5188db"/>
        </g>
        <g id="Group_4222" data-name="Group 4222">
          <path id="Path_3637" data-name="Path 3637" d="M-410.921,129.5h-29.328v-1.8a.918.918,0,0,0-.9-.932h-1.654V114.561h21.272l10.588-10.994a.5.5,0,0,0,0-.69l-10.588-10.992h-21.141V90.707a2.151,2.151,0,0,0-2.119-2.18,2.149,2.149,0,0,0-2.117,2.18V126.77h-1.66a.919.919,0,0,0-.9.932v1.8h-2.465a.752.752,0,0,0-.741.762.752.752,0,0,0,.741.763h41.019a.752.752,0,0,0,.741-.763A.752.752,0,0,0-410.921,129.5Zm-11.307-35.9.161.167,9.105,9.454-9.105,9.455-.161.168h-23.017V93.6Zm-23.2-2.894a.647.647,0,0,1,.637-.655.648.648,0,0,1,.638.655v1.179h-1.275Zm0,25.378h1.144V126.77h-1.144Zm3.7,13.417h-6.264V128.3h6.264Z" transform="translate(452.68 -88.527)" fill="#5188db"/>
        </g>
        <g id="Group_4223" data-name="Group 4223" transform="translate(14.703 7.207)">
          <path id="Path_3638" data-name="Path 3638" d="M-424.979,113.169a7.351,7.351,0,0,1-7.232-7.449,7.352,7.352,0,0,1,7.232-7.45,7.352,7.352,0,0,1,7.233,7.45A7.352,7.352,0,0,1-424.979,113.169Zm0-13.184a5.659,5.659,0,0,0-5.567,5.734,5.659,5.659,0,0,0,5.567,5.734,5.659,5.659,0,0,0,5.567-5.734A5.659,5.659,0,0,0-424.979,99.986Z" transform="translate(432.211 -98.27)" fill="#5188db"/>
        </g>
        <g id="Group_4224" data-name="Group 4224" transform="translate(18.513 11.652)">
          <path id="Path_3639" data-name="Path 3639" d="M-424.1,110.423a.824.824,0,0,1-.622-.287l-1.972-2.284a.876.876,0,0,1,.068-1.211.816.816,0,0,1,1.176.071l1.291,1.494,2.573-3.582a.817.817,0,0,1,1.164-.18.875.875,0,0,1,.174,1.2l-3.182,4.432a.827.827,0,0,1-.632.347Z" transform="translate(426.906 -104.276)" fill="#5188db"/>
        </g>
      </g>
    </g>
  </g>
</svg>
