<svg xmlns="http://www.w3.org/2000/svg" xmlns:xlink="http://www.w3.org/1999/xlink" width="72" height="72" viewBox="0 0 72 72">
  <defs>
    <linearGradient id="linear-gradient" x1="0.5" x2="0.5" y2="1" gradientUnits="objectBoundingBox">
      <stop offset="0" stop-color="#e8f2ff"/>
      <stop offset="1" stop-color="#e8f2ff"/>
    </linearGradient>
    <clipPath id="clip-path">
      <rect id="Rectangle_5432" data-name="Rectangle 5432" width="56" height="56" transform="translate(743.896 627.896)" fill="#247cff"/>
    </clipPath>
    <clipPath id="clip-path-2">
      <path id="Path_4326" data-name="Path 4326" d="M16.16,31.8c.982-.55,1.91-1.146,2.9-1.607a1.323,1.323,0,0,1,1.831.653,1.415,1.415,0,0,1-.462,1.987c-.841.556-1.735,1.03-2.737,1.615-.524-.91-.994-1.721-1.529-2.647m-4.808-4.875a6.2,6.2,0,0,1-2-1.022l.083-.334H12.48l.224.248c-.44.382-.925,1.109-1.316,1.109H11.35m4.575.017c-.464-.071-.845-.675-1.258-1.079l.127-.315h3.145c-.5.747-1.022,1.41-1.794,1.41a1.415,1.415,0,0,1-.218-.017M5.219,25.482a3.051,3.051,0,0,1,3.372,1.46,4.142,4.142,0,0,0,2.234,1.43c1.226.389,2.1-.425,2.8-1.358,1.894,1.953,3.534,1.875,5.279-.2.387-.46.768-1.179,1.242-1.264a22.766,22.766,0,0,1,3.645-.061l-2.619,3.5c-1.533-.861-2.842-.181-4.176.605-3.295,1.941-6.613,3.834-9.929,5.746-.3.173-.607.34-1.063.591a11.055,11.055,0,0,0-.033-2.008.6.6,0,0,0-.117-.236.7.7,0,0,0-1.229.1.507.507,0,0,0-.065.2,26.766,26.766,0,0,0-.029,2.946c.02,1,.5,1.279,1.391.775,2.673-1.521,5.326-3.067,7.988-4.6.3-.175.617-.342.979-.543.507.878.991,1.72,1.507,2.619a8.248,8.248,0,0,0-1.466.9.639.639,0,0,0-.114.145.742.742,0,0,0,.629,1.1.4.4,0,0,0,.193-.043c1.922-1.045,3.828-2.128,5.689-3.277a2.747,2.747,0,0,0,1.1-3.276,1.207,1.207,0,0,1,.265-1.315c.7-.865,1.358-1.763,2.038-2.641.033-.047.112-.059.293-.147a5.6,5.6,0,0,1,.5,1.556c.039,4.219.022,8.44.022,12.734H22.453V37.325c0-.55,0-1.163-.708-1.171s-.737.583-.729,1.143c.016,1.179,0,2.354,0,3.612H9.471c1.036-.607,1.887-1.126,2.763-1.611a.743.743,0,0,0,.241-1.226c-.181-.216-.676-.177-.982-.012-2.011,1.091-3.969,2.276-5.968,3.386a3.884,3.884,0,0,1-1.551.511,2.123,2.123,0,0,1-2.481-2.248c-.039-3.766-.049-7.532,0-11.3A2.86,2.86,0,0,1,4.528,25.49h.461a2.181,2.181,0,0,0,.226-.01m31.09-1.448a1.1,1.1,0,0,1,2.168.236.191.191,0,0,1,0,.033l.008.006-.008.006a1.1,1.1,0,1,1-2.166-.284M11.625,21.657h3.8v2.319h-3.8Zm5.305,2.4c0-1-.039-1.875.026-2.745a1.238,1.238,0,0,1,.527-.73,6.155,6.155,0,0,0,2.495-3.759c.134-.646.393-.771.963-.786a8.705,8.705,0,0,0,1.478-.32c-.407,2.665-.8,5.3-1.238,7.929-.028.167-.414.381-.641.389-.558.02-1.116.025-1.7.025-.607,0-1.238-.006-1.914-.006m3.3-11.91h.73a1.286,1.286,0,0,1,1.185.88,1.186,1.186,0,0,1-.309,1.142,1.139,1.139,0,0,1-.167.139,1.172,1.172,0,0,1-.67.208h-.768ZM8.365,15.866a1.121,1.121,0,0,1,.472-.892,21.816,21.816,0,0,0,8.029-6.98,2.316,2.316,0,0,1,1.809,2.446q.014,2.456,0,4.911a4.865,4.865,0,0,1-4.914,4.929q-.157.008-.318.008a4.88,4.88,0,0,1-5.077-4.421M27.151,19.5V4.631H47.313V19.523H30.171a12.809,12.809,0,0,0,1.193-1.665.543.543,0,0,0,.053-.157.723.723,0,0,0-.925-.811.65.65,0,0,0-.274.151,11.068,11.068,0,0,0-1.43,1.863,1.271,1.271,0,0,1-1.081.7,1.708,1.708,0,0,1-.55-.1M26.387,2.221h21.6c.506,0,1.054-.045.729.8H25.634c-.236-.855.279-.8.753-.8M13.616,0a19.163,19.163,0,0,0-2.893.24A8.939,8.939,0,0,0,5.873,2.4a.462.462,0,0,0-.089.116.722.722,0,0,0,.851,1.018.535.535,0,0,0,.136-.065C10.63.859,14.7.867,18.819,2.6c3.09,1.306,4.411,5.294,3.824,8.462a.243.243,0,0,1-.307.186l-1.548-.45a.856.856,0,0,1-.616-.728,4.053,4.053,0,0,0-2.4-3.391,2.176,2.176,0,0,1,.1-.32c.267-.521.535-1.089-.193-1.411-.682-.3-.9.328-1.146.767a19.5,19.5,0,0,1-8.807,8.116,1.223,1.223,0,0,0-.872,1.223,6.353,6.353,0,0,0,2.663,5.5c.2.145.472.358.485.55.049.962.021,1.932.021,2.909H5.957a2.572,2.572,0,0,1-.183-.491c-.488-3.794-1.035-7.579-1.428-11.38A12.858,12.858,0,0,1,4.853,6.23a.342.342,0,0,0,.008-.178A.741.741,0,0,0,3.7,5.625a.809.809,0,0,0-.182.163,2.857,2.857,0,0,0-.376,1.1c-.8,3.2-.219,6.385.12,9.564.263,2.5.676,4.977,1.032,7.523C1.29,24.508,0,26.051,0,29.036V39.355a3.832,3.832,0,0,0,3.774,4.139h.038A4.8,4.8,0,0,0,6.02,42.91a3.932,3.932,0,0,1,1.749-.454c4.447-.025,8.893-.024,13.339-.022h4.447c1.371,0,1.429-.059,1.43-1.452,0-4-.017-7.992.009-11.987a4.884,4.884,0,0,0-1.244-3.661c1.071-1.391,2.128-2.763,3.185-4.134q2.152-.042,4.306-.079h3.29l.178.328a4.458,4.458,0,0,1-.716,1,2.307,2.307,0,0,0-.865,2.6,2.234,2.234,0,0,0,2.123,1.594,2.309,2.309,0,0,0,2.221-1.474,2.359,2.359,0,0,0-.827-2.712,6.138,6.138,0,0,1-.837-1.345h8.51c2.4,0,2.521-.116,2.521-2.468q0-6.536.012-13.07c0-.33.083-.914.236-.951,1.08-.267,1.238-.979,1.238-1.783V2.787c0-.157-.006-.323-.011-.487C50.282,1.146,49.872.719,48.7.708c-1.539-.012-3.079,0-4.618,0C37.99.708,31.894.688,25.8.739a2.026,2.026,0,0,0-1.531.733,2.372,2.372,0,0,0,1.287,3.262c0,4.726.021,9.474-.016,14.221-.009,1.11.153,2,1.459,2.28a12.832,12.832,0,0,0-1.167,1.578c-.68,1.283-1.592,1.847-3.015,1.206a1.32,1.32,0,0,1-.139-.118c.128-.818.271-1.678.4-2.541A67.233,67.233,0,0,0,24.171,8.77,8.624,8.624,0,0,0,18,.661,13.874,13.874,0,0,0,13.706,0Z" transform="translate(0 0)" fill="#1e62c7"/>
    </clipPath>
    <clipPath id="clip-path-3">
      <rect id="Rectangle_675" data-name="Rectangle 675" width="50.325" height="43.493" fill="#1e62c7"/>
    </clipPath>
  </defs>
  <g id="Group_13238" data-name="Group 13238" transform="translate(-892 -177)">
    <rect id="Rectangle_5436" data-name="Rectangle 5436" width="72" height="72" rx="18" transform="translate(892 177)" fill="url(#linear-gradient)"/>
    <g id="Mask_Group_37" data-name="Mask Group 37" transform="translate(156.104 -440.896)" clip-path="url(#clip-path)">
      <g id="counter2" transform="translate(746.734 634.15)">
        <g id="Group_4780" data-name="Group 4780" transform="translate(0 0)">
          <g id="Group_4779" data-name="Group 4779" clip-path="url(#clip-path-2)">
            <rect id="Rectangle_674" data-name="Rectangle 674" width="44.047" height="50.804" transform="translate(-0.482 43.488) rotate(-89.37)" fill="#1e62c7"/>
          </g>
        </g>
        <g id="Group_4782" data-name="Group 4782" transform="translate(0.001 0.001)">
          <g id="Group_4781" data-name="Group 4781" clip-path="url(#clip-path-3)">
            <path id="Path_4327" data-name="Path 4327" d="M61.2,83.449a2.769,2.769,0,0,1-2.418-.063A4.918,4.918,0,0,1,58.15,83a.689.689,0,0,1,.786-1.124,1.809,1.809,0,0,0,2.252.006.933.933,0,0,1,.895.193,1.032,1.032,0,0,1-.142.975,5.256,5.256,0,0,1-.742.393" transform="translate(-46.571 -65.749)" fill="#1e62c7"/>
          </g>
        </g>
      </g>
    </g>
  </g>
</svg>
