<svg xmlns="http://www.w3.org/2000/svg" xmlns:xlink="http://www.w3.org/1999/xlink" width="56" height="56" viewBox="0 0 56 56">
  <defs>
    <clipPath id="clip-path">
      <rect id="Rectangle_6385" data-name="Rectangle 6385" width="56" height="56" transform="translate(265 1948)" fill="#fff" stroke="#707070" stroke-width="1"/>
    </clipPath>
  </defs>
  <g id="Mask_Group_91" data-name="Mask Group 91" transform="translate(-265 -1948)" clip-path="url(#clip-path)">
    <g id="children" transform="translate(271 1951.989)">
      <path id="Path_24160" data-name="Path 24160" d="M39.538,44.961v1.974h3.153a.386.386,0,0,0,.219-.082.275.275,0,0,0,.082-.114h0v0h0v0h0v0h0v0h0a.325.325,0,0,0,.023-.082v0h0v0h0v0h0v0h0v0h0v0h0v-.008h0a1.026,1.026,0,0,0-.043-.411,1.4,1.4,0,0,0-.208-.411h0a.972.972,0,0,0-.184-.192,1.341,1.341,0,0,1-.153-.137.33.33,0,0,1-.145-.274h0v-.227a3.626,3.626,0,0,0-1.386-.262,3.981,3.981,0,0,0-1.359.266Zm-32.273.529V47.1H9.826a.329.329,0,0,0,.18-.067.257.257,0,0,0,.067-.09h0v0h0v0h0v0h0v0h0a.331.331,0,0,0,.02-.067v0h0v0h0v0h0v0h0v0h0v0h0v-.008h0a.8.8,0,0,0-.035-.337,1.233,1.233,0,0,0-.168-.337h0a.837.837,0,0,0-.149-.157.861.861,0,0,1-.121-.114.273.273,0,0,1-.117-.223h0V45.47a2.951,2.951,0,0,0-1.128-.211,3.691,3.691,0,0,0-1.108.231Zm-2.213.188a3.191,3.191,0,0,0-1.23-.274,2.127,2.127,0,0,0-1.022.255v1.594H5.052V45.677ZM2.8,45.059a2.642,2.642,0,0,1,1.022-.2,3.622,3.622,0,0,1,1.23.235v-8.67c0-.117,0-.18,0-.231-.008-.2-.012-.3.09-.415.114-.129.223-.125.443-.121.035,0,.074,0,.18,0H6.74c.219,0,.325-.008.435.114s.1.215.094.407c0,.039,0,.09,0,.2v8.541a3.911,3.911,0,0,1,1.128-.188,3.454,3.454,0,0,1,1.132.18V33.13H2.8v3.36h0a.108.108,0,0,1,0,.035v8.533ZM9.556,27.819a1.545,1.545,0,0,0-.082-.392.851.851,0,0,0-.074-.161A1.573,1.573,0,0,0,9.187,27a.272.272,0,0,1,.372-.4A1.641,1.641,0,0,1,9.873,27a1.729,1.729,0,0,1,.129.255,1.413,1.413,0,0,1,.1.568c0,.051,0,.1,0,.157v4.876a.273.273,0,0,1-.02.1v.877h1.191l.106-.329c.059-.192.117-.4.176-.615a14.644,14.644,0,0,0,.294-4.061c-.008-.4-.016-.8-.016-1.124v0a7.848,7.848,0,0,0-.129-1.089,4.076,4.076,0,0,0-.243-.811,3.97,3.97,0,0,0-2.358-1.782c-.164-.07-.329-.141-.5-.219-.023.027-.043.055-.067.082a2.434,2.434,0,0,1-.462.435,3.312,3.312,0,0,1-1.747.584,3.434,3.434,0,0,1-1.868-.431,2.748,2.748,0,0,1-.756-.627q-.235.112-.482.223A4.648,4.648,0,0,0,.854,25.767a3.183,3.183,0,0,0-.215.627,4.648,4.648,0,0,0-.1.736h0V31.9c.008.121.016.243.031.372s.035.258.059.384a4.674,4.674,0,0,0,.192.7,4.6,4.6,0,0,0,.2.478H2.252v-.991a.121.121,0,0,1,0-.039V27.737a1.814,1.814,0,0,1,.016-.255,1.31,1.31,0,0,1,.082-.36,1.225,1.225,0,0,1,.36-.486h0a.272.272,0,0,1,.364.4.846.846,0,0,0-.219.309.916.916,0,0,0-.051.192,1.018,1.018,0,0,0,0,.188v.031h0v4.821h6.72V27.949h0a.133.133,0,0,1,0-.039.179.179,0,0,0,.02-.09Zm.533,6.556V36.29a1.042,1.042,0,0,0,.885-.5l.008-.016h0l.008-.016v0l0,0,.016-.027v0l0-.012v0l0-.012v0l0-.012,0-.008,0-.012,0,0,.016-.012v0l.008-.016v0l.008-.02h0l.008-.02h0l.008-.016v0l0-.016v0l0-.012,0-.008,0-.012,0-.008v0l0-.012v0l0-.008,0-.012v-.008l0-.016v0l0-.016v0l0-.02h0l0-.023,0-.02v0l0-.02v0l0-.016V35.3l0-.012V35.28l0-.023h0v-.008l0-.016v-.008l0-.016v0l0-.02v0l0-.02h0l0-.023h0l0-.023v0l0-.02V35.01l0-.043V34.9h0V34.88h0V34.6h0v-.161l0-.055H10.088Zm-8.933,0c0,.094-.008.184-.012.266h0v.129h0c0,.063,0,.121.008.18v.035c0,.039.008.074.012.11h0l0,.023h0l0,.027,0,.02v0l0,.02V35.2l0,.016v.008h0c0,.031.012.063.016.094v.012l0,.016v0l0,.02v0l0,.02h0l0,.02h0l0,.02v0l.008.023,0,.016h0l0,.012v.008l0,.008v0l.016.023v0l0,.012v0l0,.012v0l0,.012h0l0,.012,0,0,0,0,.008.016v0l.008.016h0l.008.016h0l.008.016.008.016h0v0l0,0,.008.012h0l.008.012,0,0,.008.012,0,.008,0,.008v0l.008.012v0l0,.008v0l.008.012,0,0,.008.012,0,0,.008.012,0,0v0l.008.02h0l.012.016a1,1,0,0,0,.842.376V34.379H1.155Zm10.582.509a.258.258,0,0,1,0,.055v.133l0,.023v0l0,.023v0l0,.02v.012l0,.02v.012l0,.02v.016l-.008.055h0l0,.02v.008l0,.02v.012a.264.264,0,0,0-.008.055h0l0,.027,0,.02v.012c-.008.043-.02.086-.031.129v0a.364.364,0,0,1-.016.051h0l-.008.02v0l-.008.027-.008.023v0l-.008.023v0l-.008.023v.008l-.008.023-.008.024v0l-.008.024v0l-.008.023v0l-.008.023h0l-.008.023h0l-.012.023h0l-.012.023h0L11.514,36h0l-.012.023h0l-.012.023h0l-.012.023h0l-.012.023a1.572,1.572,0,0,1-1.371.771v8.623a.4.4,0,0,0,.008.086,1.685,1.685,0,0,1,.219.223l0,0h0a.552.552,0,0,1,.055.07h0a1.728,1.728,0,0,1,.251.493,1.305,1.305,0,0,1,.051.6l0,.02v.008h0v.008h0V47h0v.008h0v.02h0v.016l-.008.023h0v.02h0V47.1l0,.012v.008l0,0h0l0,.008v.008l0,.008h0l0,.008,0,.012h0a.8.8,0,0,1-.231.317.857.857,0,0,1-.482.184H7.077a.271.271,0,0,1-.27-.27V36.376c0-.051,0-.117,0-.176-.063,0-.129,0-.145,0H5.847c-.035,0-.106,0-.172,0,0,.07,0,.153,0,.223v11.1a.271.271,0,0,1-.27.27H2.53a.271.271,0,0,1-.27-.27V36.772a1.5,1.5,0,0,1-1.277-.6l-.016-.02-.016-.02L.94,36.11h0l-.012-.02-.012-.02h0L.9,36.047h0l-.012-.023h0L.877,36h0l-.012-.023h0l-.012-.02h0l-.012-.023h0L.83,35.91h0l-.012-.023h0l-.012-.023h0L.8,35.84h0l-.012-.023h0l-.008-.023h0l-.012-.031h0L.76,35.734h0l-.008-.027h0L.74,35.683h0l-.008-.027h0l-.008-.027h0L.717,35.6h0l-.008-.027h0L.7,35.546l-.008-.027h0l-.008-.031h0L.678,35.46h0L.67,35.429h0l0-.027h0l0-.031h0l0-.031h0l0-.031h0l0-.031h0l0-.031h0l-.012-.031h0l0-.031h0l0-.031h0v-.035h0l0-.031h0l0-.035h0l0-.035h0l0-.035h0l0-.035h0v-.035h0v-.035h0v-.035h0V34.8h0v-.035h0v-.035h0V34.7h0v-.035h0v-.039h0v-.039h0v-.039h0V34.5h0v-.039h0v-.039h0l0-.039h0l0-.039h0l0-.039h0l0-.039h0l0-.039,0,0a4.918,4.918,0,0,1-.3-.674,5.1,5.1,0,0,1-.215-.787c-.027-.141-.051-.282-.067-.423S.012,32.076,0,31.935a.192.192,0,0,1,0-.043V27.13H0v-.012a5.089,5.089,0,0,1,.11-.842,3.365,3.365,0,0,1,.255-.74A5.016,5.016,0,0,1,3,23.57c.227-.1.446-.2.642-.3a2.747,2.747,0,0,0,.329-.568,2.509,2.509,0,0,0,.164-.552,3.827,3.827,0,0,1-.587-.431A7.125,7.125,0,0,1,1.9,19.85a4.567,4.567,0,0,1-.474-2.365l.055-2.894A.306.306,0,0,1,1.5,14.5l-.674-.211a3.932,3.932,0,0,1,2.667-4.022c.556-.223-.376-1.445.9-.975,1.711.627,5.51,1.48,6.411,2.553a2.981,2.981,0,0,1,.744,2.487,1.051,1.051,0,0,1-.235.815.4.4,0,0,1-.282.067v2.475a4.944,4.944,0,0,1-2.722,4.5,2.994,2.994,0,0,0,.137.505,3.068,3.068,0,0,0,.262.548c.184.086.4.176.611.27a4.385,4.385,0,0,1,2.643,2.068,4.811,4.811,0,0,1,.274.916,8.445,8.445,0,0,1,.141,1.163c0,.012,0,.023,0,.035,0,.419.008.768.016,1.116a14.94,14.94,0,0,1-.313,4.214c-.055.211-.117.423-.184.634-.059.192-.117.376-.176.548a.578.578,0,0,1,0,.082v.274h0v.117h0v.031h0v.157l0,.008ZM5.15,22.572a4.155,4.155,0,0,1-.513-.172,3.679,3.679,0,0,1-.164.509,3.194,3.194,0,0,1-.325.587,2.416,2.416,0,0,0,.486.411,2.851,2.851,0,0,0,1.621.439A2.7,2.7,0,0,0,7.8,23.833a2.239,2.239,0,0,0,.317-.294l.082-.106a3.924,3.924,0,0,1-.255-.552,3.62,3.62,0,0,1-.133-.458,4.746,4.746,0,0,1-1.657.286,3.76,3.76,0,0,1-1.006-.137Zm-.572-.8A3.476,3.476,0,0,0,5.126,22l.008,0a3.642,3.642,0,0,0,1.069.157,4.2,4.2,0,0,0,1.715-.38A4.4,4.4,0,0,0,9.387,20.7a4.459,4.459,0,0,0,1.1-3.008V15.186h0a1.763,1.763,0,0,0-.078-.474A1.077,1.077,0,0,0,9.117,14c-.039,0-.082,0-.137.008A30.3,30.3,0,0,1,5.091,14a12.9,12.9,0,0,1-2.354-.431,4.037,4.037,0,0,1-.266.517,3.536,3.536,0,0,1-.446.619L1.97,17.492a4.107,4.107,0,0,0,.411,2.1A6.634,6.634,0,0,0,3.9,21.315a3.311,3.311,0,0,0,.6.427.144.144,0,0,1,.074.031Zm.963,14.365c-.023.027-.008.02.012.016.008-.027.02-.047-.012-.016Zm1.238,0c-.027-.027-.02-.012-.012.008s.035.02.012-.008ZM28.392,14ZM18.077,45.019a4.923,4.923,0,0,0,.885.255,2.6,2.6,0,0,0,.795.02l.027-.309v-.008l.591-7.155-.18-.008c-.58-.023-1.151-.047-1.743-.074l-.129-.008-.07,0-.176,7.292ZM19.7,45.9a3.388,3.388,0,0,1-.838-.039,5.155,5.155,0,0,1-1.073-.313c-.392.137-.658.262-.956.4-.1.043-.2.09-.286.129l-.176.078c-.482.211-.912.4-.752.916a.454.454,0,0,0,.149.227.854.854,0,0,0,.317.149h3.1a.539.539,0,0,0,.278-.172h0a.687.687,0,0,0,.141-.368l.094-1Zm5.526-.333a5.37,5.37,0,0,1-1.018.294,3.244,3.244,0,0,1-.909.031l.09,1.014a.7.7,0,0,0,.141.368.555.555,0,0,0,.278.172h3.184a.8.8,0,0,0,.317-.149.472.472,0,0,0,.149-.227c.172-.548-.3-.756-.811-.987l-.082-.039-.02-.008c-.219-.1-.435-.192-.662-.278a5.179,5.179,0,0,0-.658-.192Zm-1.986-.282a2.574,2.574,0,0,0,.865-.008,4.414,4.414,0,0,0,.795-.219l-.094-7.261c-.333.023-.685.043-1.034.055-.368.012-.736.02-1.093.02l.529,7.1v.012l.031.3Zm2.252-7.554.094,7.214a4.993,4.993,0,0,1,.533.168c.247.09.474.192.7.294l.016.008.082.035c.807.36,1.539.689,1.187,1.817a1.131,1.131,0,0,1-.372.552,1.527,1.527,0,0,1-.642.3.48.48,0,0,1-.074.008H23.756a.33.33,0,0,1-.106-.016A1.222,1.222,0,0,1,23,47.7a1.358,1.358,0,0,1-.3-.732v-.012h0l-.164-1.915v-.02L22,37.861c-.117,0-.231,0-.349,0l-.587-.012-.6,7.19v.012L20.3,46.97h0v.012a1.358,1.358,0,0,1-.3.732h0a1.237,1.237,0,0,1-.654.4.33.33,0,0,1-.106.016H16.056a.48.48,0,0,1-.074-.008,1.5,1.5,0,0,1-.642-.3,1.158,1.158,0,0,1-.372-.552c-.345-1.1.352-1.406,1.136-1.751l.168-.074.278-.129c.27-.125.517-.239.846-.36l.172-7.257c-.231-.012-.462-.02-.7-.031h-.027a8.616,8.616,0,0,1-1.069-.09c-.724-.133-1.245-.45-1.1-1.273,0-.012,0-.023.008-.039h0a34.944,34.944,0,0,0,1.01-4.535c.016-.09.027-.176.043-.266a1.624,1.624,0,0,1-1.089-.713,3.267,3.267,0,0,1-.36-2.052h0a1.65,1.65,0,0,0-.1-.458,2.479,2.479,0,0,1-.086-.309c0-.012,0-.023,0-.031a9.358,9.358,0,0,1-.114-1.14,9.131,9.131,0,0,1,.023-1.136h0a.4.4,0,0,1,.031-.121,10.573,10.573,0,0,1,.227-3.172c.615-2.839,1.367-3.462,3.133-4.923.239-.2.493-.407.74-.615l.016-.012c.055-.07.094-.117.129-.164a3.417,3.417,0,0,0,.454-.678,6.281,6.281,0,0,1-2.1-1.864c-.458.114-.85.215-1.175.3-.376.1-.67.176-.862.219a.293.293,0,0,1-.082.008.34.34,0,0,1-.333-.352l.2-8.283V5.936a6.045,6.045,0,0,1,.325-1.422A6.867,6.867,0,0,1,15.363,3.2a6.641,6.641,0,0,1,2.7-2.479,7.686,7.686,0,0,1,3.619-.7A6.868,6.868,0,0,1,24.954.9a6.713,6.713,0,0,1,2.4,2.365,8.106,8.106,0,0,1,.615,1.222A8.931,8.931,0,0,1,28.381,5.8a.394.394,0,0,1,.016.1v8.11a.343.343,0,0,1-.623.2,2.143,2.143,0,0,0-.6-.56,3.335,3.335,0,0,0-.6-.3A7.036,7.036,0,0,1,23.9,15.91a3.67,3.67,0,0,0,.38.724l.07.11a5.906,5.906,0,0,1,1.57,1.018,6.545,6.545,0,0,1,1.425,1.982,16.665,16.665,0,0,1,1.12,3.513l.133.552.435,1.782a.34.34,0,0,1-.074.305c.016.305.02.611.008.92a9.205,9.205,0,0,1-.114,1.14.092.092,0,0,1-.008.031c-.027.117-.059.211-.086.309a1.65,1.65,0,0,0-.1.458h0a3.267,3.267,0,0,1-.36,2.052,1.617,1.617,0,0,1-1.05.7l0,.02c.239,1.574.521,3.125.862,4.633h0a1.209,1.209,0,0,1-.031.8.969.969,0,0,1-.654.533l-.055.012c-.654.086-1.277.161-1.884.215ZM23.047,15.166c.078-.035.157-.07.239-.11l.031-.012A6.246,6.246,0,0,0,26.168,11.9a4.618,4.618,0,0,0,.376-1.469c.137-1.457.012-3.423.012-4.93-1.194.184-1.692-.615-1.911-1.805a8.18,8.18,0,0,1-8.467,1.731c0,1.5-.117,3.372,0,4.817a4.92,4.92,0,0,0,.305,1.367c1.375,3.615,4.2,4.57,6.564,3.556Zm1.206,2.279a3.864,3.864,0,0,1-.9.818,3.919,3.919,0,0,1-2.126.638,3.7,3.7,0,0,1-2.123-.654,3.92,3.92,0,0,1-.352-.278,4.422,4.422,0,0,1-.435-.423c-.172.145-.329.274-.478.4-1.637,1.355-2.334,1.931-2.9,4.535a10.718,10.718,0,0,0-.227,1.555,9.217,9.217,0,0,0,0,1.273l1.833-.016q.065-.352.141-.7c.063-.317.133-.631.215-.936a14.937,14.937,0,0,1,.458-1.441c.055-.149.114-.294.172-.439a.344.344,0,0,1,.634.266,14.691,14.691,0,0,0-.721,2.307c-.031.137-.063.274-.094.415-.051.266-.1.54-.141.826a.359.359,0,0,1,0,.129c-.055.235-.1.466-.149.7l-.02.129a19.417,19.417,0,0,0,4.457.466,23.851,23.851,0,0,0,4.014-.419c.129-.027.255-.059.38-.09-.055-.231-.106-.458-.153-.685a.353.353,0,0,1-.031-.11c-.008-.047-.016-.1-.023-.145l0-.027a17.761,17.761,0,0,0-.822-2.965c-.067-.157-.133-.305-.2-.454a.344.344,0,0,1,.623-.294l0,.012q.117.241.211.482a13.55,13.55,0,0,1,.458,1.3,15.047,15.047,0,0,1,.392,1.711h1.923l-.333-1.359c-.09-.372-.114-.462-.133-.556a16.065,16.065,0,0,0-1.069-3.368,5.807,5.807,0,0,0-1.273-1.778,4.85,4.85,0,0,0-1.206-.815Zm-4.891-1.218a3.977,3.977,0,0,1-.54.815,3.318,3.318,0,0,0,.407.435c.027.02.051.043.078.063a3.152,3.152,0,0,0,1.884.67,3.074,3.074,0,0,0,1.892-.619,3.569,3.569,0,0,0,.619-.6v0a4.17,4.17,0,0,1-.431-.8,5.385,5.385,0,0,1-3.908.039Zm7.167,15.117a.371.371,0,0,1-.027-.114h0l-.008-.141c-.188-1.285-.349-2.585-.493-3.9-.129.023-.255.051-.38.074a20.254,20.254,0,0,1-4.108.427H21.32a18.6,18.6,0,0,1-4.414-.482l-.016.086c-.117,1.559-.282,3.078-.517,4.539a35.741,35.741,0,0,1-1.026,4.605c-.035.274.211.4.548.458a7.4,7.4,0,0,0,.975.078H16.9c.513.02,1,.043,1.472.067l2.365.086h.043a.463.463,0,0,1,.078.016c.27.008.54.016.807.02.478.008.952.008,1.429,0,.654-.012,1.324-.043,2.029-.1.681-.055,1.39-.137,2.134-.247a.319.319,0,0,0,.208-.149.582.582,0,0,0-.008-.356h0v-.008c-.349-1.543-.634-3.109-.877-4.688l-.051-.274ZM16.209,27.228l.035-.47a.326.326,0,0,1,.09-.208c.016-.086.031-.172.051-.258s.031-.192.043-.286H14.674c-.012.247-.012.49,0,.732a7.883,7.883,0,0,0,.106,1.046c.016.07.047.161.074.251a1.931,1.931,0,0,1,.129.7v.012h0a2.643,2.643,0,0,0,.247,1.625.947.947,0,0,0,.564.4c.063-.8.141-1.61.251-2.42.047-.376.106-.748.168-1.124ZM26.618,26.6l.016.067a.442.442,0,0,1,.012.07c.1.552.192,1.108.266,1.664.11.811.188,1.617.251,2.42a.947.947,0,0,0,.564-.4,2.643,2.643,0,0,0,.247-1.625h0v-.012a1.946,1.946,0,0,1,.129-.7c.027-.09.059-.18.074-.251a8.676,8.676,0,0,0,.106-1.046c.008-.247.008-.5,0-.748L26.5,26.022c.039.188.078.384.114.576Zm-12.019-12Zm22.221,30.6a3.912,3.912,0,0,0-1.508-.337,2.643,2.643,0,0,0-1.257.309v1.958H36.82V45.192Zm-2.769-.76a3.312,3.312,0,0,1,1.257-.243,4.344,4.344,0,0,1,1.508.29V33.819c0-.141,0-.219,0-.282-.008-.243-.016-.368.11-.509.141-.157.27-.153.544-.149.043,0,.09,0,.223,0h1.2c.266,0,.4-.008.537.141s.125.262.117.5c0,.051,0,.11,0,.239v10.5a4.738,4.738,0,0,1,1.386-.231,4.279,4.279,0,0,1,1.39.219V29.774H34.055V33.9h0a.16.16,0,0,1,0,.043V44.432Zm8.3-21.183a1.879,1.879,0,0,0-.1-.482,1.26,1.26,0,0,0-.09-.2,2.136,2.136,0,0,0-.258-.325.336.336,0,0,1-.016-.466.33.33,0,0,1,.47-.02,1.943,1.943,0,0,1,.384.482,2.126,2.126,0,0,1,.157.313,1.713,1.713,0,0,1,.121.7c0,.063,0,.125,0,.192v5.988A.286.286,0,0,1,43,29.55v1.077h1.465c.043-.133.086-.27.129-.4.074-.239.145-.49.219-.756a17.844,17.844,0,0,0,.36-4.993c-.012-.493-.02-.983-.02-1.382v-.008a9.178,9.178,0,0,0-.161-1.335,5.138,5.138,0,0,0-.3-1c-.49-1.151-1.7-1.676-2.9-2.189-.2-.086-.4-.172-.615-.27-.027.035-.055.067-.082.1a3.054,3.054,0,0,1-.568.533,3.993,3.993,0,0,1-2.15.713,4.206,4.206,0,0,1-2.295-.529,3.626,3.626,0,0,1-.932-.768c-.192.09-.388.18-.591.274-1.147.525-2.44,1.112-2.914,2.1a3.471,3.471,0,0,0-.262.768,5.676,5.676,0,0,0-.121.9h0v5.855c.008.149.02.3.039.458s.043.317.074.474a5.758,5.758,0,0,0,.239.865,5.451,5.451,0,0,0,.251.584h1.508V29.406a.223.223,0,0,1,0-.051V23.144a1.989,1.989,0,0,1,.02-.309,1.488,1.488,0,0,1,.1-.446,1.469,1.469,0,0,1,.443-.6h0a.333.333,0,1,1,.446.493,1.034,1.034,0,0,0-.266.38,1.153,1.153,0,0,0-.063.235,1.169,1.169,0,0,0,.008.231c0,.012,0,.023,0,.035h0v5.925h8.259V23.41h0a.241.241,0,0,1,0-.051c.008-.039.012-.074.016-.11ZM43,31.3v2.354a1.281,1.281,0,0,0,1.089-.611l.012-.02v0l.012-.02,0,0,0-.008.02-.035v0l.008-.012v0l.008-.012,0,0,0-.012,0-.008.008-.016,0-.008.008-.016,0,0,.008-.02v0l.008-.023h0l.008-.023h0l.008-.02v0l.008-.02,0-.008,0-.016,0-.008,0-.016,0-.012v-.023l0-.012,0-.016,0-.008,0-.02v0l0-.02v0l.008-.023h0l.008-.027,0-.023v0l0-.023v-.008l0-.02v-.008l0-.016,0-.012,0-.027h0l0-.012,0-.016v-.008l0-.02v-.008l0-.023v0l0-.027h0l0-.027h0l0-.027v0l0-.023v-.008l0-.02v-.078l0-.055v-.106h0v-.352h0v-.2l0-.067H43Zm-10.977,0q-.012.17-.012.329h0v.157h0c0,.074,0,.149.008.219v0l0,.031v0c0,.047.008.09.012.133v0l0,.031h0l0,.031,0,.027v0l0,.023v.008l0,.02v.016c.008.039.012.078.02.114v.016l0,.02V32.5l0,.023v0l.008.023h0l.008.027h0l.008.023v0l.008.027.008.02h0l0,.016,0,.008,0,.008v0l.008.02v0l0,.012v0l0,.016v0l0,.016v0l.008.016,0,.008,0,.008.008.02v0l.008.02v0l.008.02h0l.008.02.008.02h0v0l0,.008.008.016h0l.008.016,0,.008.008.012,0,.008.008.012v0l.008.016v0l.008.012,0,0,.008.012,0,0,.008.016,0,0,.008.016,0,0,0,0,.012.016h0l.012.016a1.234,1.234,0,0,0,1.034.462V31.3H32.027Zm13.006.623c0,.023,0,.043,0,.067v.164l0,.027v0l0,.031v0l0,.023v.012l0,.023V32.3l0,.023v.016L45,32.4v0l0,.023v.012l0,.023v.016c0,.023-.008.043-.012.067h0l-.008.035,0,.023v.016c-.012.055-.023.11-.039.161v0c0,.02-.012.039-.016.063h0l-.008.027v0l-.012.031-.008.027v0l-.008.027v0L44.872,33v.008l-.008.027-.012.027v0l-.012.027v0l-.012.027v0l-.012.027v0l-.012.027v0l-.012.027h0l-.012.027h0l-.012.027h0l-.055.02h0l-.016.027h0l-.016.027h0l-.016.027a1.925,1.925,0,0,1-1.688.948V44.918a.339.339,0,0,0,.012.106,1.815,1.815,0,0,1,.27.278l0,0h0c.023.027.043.055.067.086h0a2.039,2.039,0,0,1,.305.6,1.565,1.565,0,0,1,.063.728l0,.027v.008h0v.016h0V46.8h0v.023h0v.016l-.008.031h0l0,.008v.008l0,.008h0l0,.008v.008l0,.016v.008l0,.008h0l0,.008v.008l0,.008h0l0,.008,0,.016h0a.977.977,0,0,1-.286.392,1.043,1.043,0,0,1-.591.227H39.256a.333.333,0,0,1-.333-.333V33.76c0-.059,0-.145,0-.219-.078,0-.161,0-.18,0H37.74c-.043,0-.133,0-.211,0,0,.086.008.188.008.274v13.64a.333.333,0,0,1-.333.333H33.718a.333.333,0,0,1-.333-.333V34.246a1.847,1.847,0,0,1-1.57-.736l-.016-.023-.016-.023-.016-.023h0l-.016-.027-.016-.027h0l-.016-.027h0l-.016-.027h0L31.69,33.3h0l-.016-.027h0l-.016-.027h0l-.016-.027h0l-.016-.027h0l-.012-.027h0l-.012-.031h0l-.012-.031h0l-.012-.031h0l-.012-.031h0l-.012-.031h0l-.012-.031h0l-.012-.031h0l-.012-.031h0l-.012-.031h0l-.012-.035h0l-.012-.035h0l-.008-.035h0l-.008-.035-.008-.035h0l-.008-.035h0l-.008-.035h0l-.008-.035h0l-.008-.035h0l-.008-.035h0l-.008-.039h0l-.008-.039h0l-.008-.039h0l0-.039h0l0-.039h0l0-.039h0l0-.039h0l0-.039h0l0-.039h0l0-.039h0l0-.043h0l0-.043h0l0-.043h0l0-.043h0l0-.043h0v-.043h0v-.043h0v-.043h0v-.043h0V31.7h0v-.047h0V31.61h0v-.047h0v-.047h0v-.047h0l0-.047h0l0-.047h0l0-.047h0l0-.047h0l0-.051h0l0-.051h0l0-.051,0,0a6.043,6.043,0,0,1-.372-.83,6.437,6.437,0,0,1-.266-.967c-.035-.176-.063-.349-.082-.521s-.031-.325-.043-.5c0-.016,0-.027,0-.043V22.4h0V22.38a6,6,0,0,1,.137-1.034,4.142,4.142,0,0,1,.313-.909c.58-1.2,1.986-1.845,3.235-2.416.278-.125.548-.251.787-.368a3.047,3.047,0,0,0,.4-.7,3.225,3.225,0,0,0,.2-.678,5.1,5.1,0,0,1-.724-.529,8.679,8.679,0,0,1-2.013-2.295,5.63,5.63,0,0,1-.584-2.91l.067-3.556a.34.34,0,0,1,.02-.11l-.83-.262A4.837,4.837,0,0,1,34.9,1.671c.685-.274-.462-1.774,1.112-1.2,2.1.771,6.771,1.817,7.875,3.141A3.658,3.658,0,0,1,44.8,6.668a1.329,1.329,0,0,1-.286,1,.517.517,0,0,1-.349.082V10.8a6.138,6.138,0,0,1-1.527,4.136,6.027,6.027,0,0,1-1.821,1.4,3.882,3.882,0,0,0,.168.619,3.677,3.677,0,0,0,.325.674c.227.106.49.219.748.329,1.316.568,2.655,1.144,3.247,2.542a5.715,5.715,0,0,1,.337,1.124,10.068,10.068,0,0,1,.172,1.429c0,.016,0,.027,0,.043,0,.513.008.944.016,1.371a18.386,18.386,0,0,1-.384,5.177c-.07.258-.145.517-.223.779-.074.235-.145.458-.219.674,0,.035,0,.067.008.1v.051l0,.035v.4h0v.039h0v.2l.016.016ZM36.934,16.8a4.584,4.584,0,0,1-.631-.211,3.78,3.78,0,0,1-.2.627,3.706,3.706,0,0,1-.4.721,3.039,3.039,0,0,0,.6.505,3.51,3.51,0,0,0,1.993.54,3.259,3.259,0,0,0,1.9-.631,2.6,2.6,0,0,0,.388-.36c.035-.043.067-.086.1-.129a4.49,4.49,0,0,1-.313-.681,4.274,4.274,0,0,1-.164-.564,5.737,5.737,0,0,1-2.036.352,5.025,5.025,0,0,1-1.226-.168Zm-.7-.987a4.186,4.186,0,0,0,.674.286l.008,0a4.492,4.492,0,0,0,1.312.2,5.1,5.1,0,0,0,2.107-.466A5.382,5.382,0,0,0,42.142,14.5,5.483,5.483,0,0,0,43.5,10.8V7.722h0a2.246,2.246,0,0,0-.094-.584,1.33,1.33,0,0,0-.243-.446,1.368,1.368,0,0,0-1.347-.431c-.051,0-.1,0-.168.008a37.568,37.568,0,0,1-4.778-.008,16.131,16.131,0,0,1-2.89-.529,4.854,4.854,0,0,1-.325.634,5.353,5.353,0,0,1-.556.756l-.067,3.431a5.027,5.027,0,0,0,.505,2.585,8.171,8.171,0,0,0,1.868,2.111,4.109,4.109,0,0,0,.74.525.369.369,0,0,1,.09.039Zm1.183,17.654c-.027.031-.012.023.012.016.012-.027.023-.055-.012-.016Zm1.519.008c-.031-.035-.023-.016-.016.012.023.008.047.023.016-.012Z" fill="#247cff"/>
    </g>
  </g>
</svg>
