<svg xmlns="http://www.w3.org/2000/svg" xmlns:xlink="http://www.w3.org/1999/xlink" width="44" height="44" viewBox="0 0 44 44">
  <defs>
    <clipPath id="clip-path">
      <rect id="Rectangle_6739" data-name="Rectangle 6739" width="44" height="44" transform="translate(104 908)" fill="#fff"/>
    </clipPath>
  </defs>
  <g id="Mask_Group_118" data-name="Mask Group 118" transform="translate(-104 -908)" clip-path="url(#clip-path)">
    <g id="Group_15255" data-name="Group 15255" transform="translate(-418.998 -15)">
      <path id="Subtraction_20" data-name="Subtraction 20" d="M9.441,30.676a1.912,1.912,0,0,1-1.591-.833L.714,17.932A3,3,0,0,1,0,15.989V3A3,3,0,0,1,3,0h12.99a3,3,0,0,1,3,3v12.99a2.971,2.971,0,0,1-.629,1.839L11.033,29.843A1.913,1.913,0,0,1,9.441,30.676ZM3.949,2.032a2,2,0,0,0-2,2V15.961A1.989,1.989,0,0,0,2.7,17.522l5.472,9.024a1.568,1.568,0,0,0,2.524,0l5.56-9a1.989,1.989,0,0,0,.784-1.589V4.032a2,2,0,0,0-2-2Z" transform="translate(535.998 930.921)" fill="#1e62c7"/>
      <path id="Path_27158" data-name="Path 27158" d="M0,0,4.382,2.921,8.764,0V9.495A4.382,4.382,0,0,1,0,9.495Z" transform="translate(549.874 941.877) rotate(180)" fill="#003078"/>
    </g>
  </g>
</svg>
