<svg xmlns="http://www.w3.org/2000/svg" xmlns:xlink="http://www.w3.org/1999/xlink" width="72" height="72" viewBox="0 0 72 72">
  <defs>
    <clipPath id="clip-path">
      <rect id="Rectangle_6379" data-name="Rectangle 6379" width="48" height="48" transform="translate(186.854 1210.854)" fill="#1e62c7" stroke="#707070" stroke-width="1"/>
    </clipPath>
  </defs>
  <g id="Group_13733" data-name="Group 13733" transform="translate(-174.854 -1198.854)">
    <rect id="Rectangle_5907" data-name="Rectangle 5907" width="72" height="72" rx="20" transform="translate(174.854 1198.854)" fill="#e8f2ff"/>
    <g id="Mask_Group_85" data-name="Mask Group 85" clip-path="url(#clip-path)">
      <path id="pictures" d="M28.856,9.741a2.859,2.859,0,0,1,2.923,2.79,2.93,2.93,0,0,1-5.852,0,2.72,2.72,0,0,1,.857-1.973A3,3,0,0,1,28.856,9.741Zm2.317-6.549V2.308H2.452V21.9h1.37v2.317H2.152a2.18,2.18,0,0,1-1.5-.589A1.96,1.96,0,0,1,.03,22.2V2.031A2.085,2.085,0,0,1,2.152,0h29.32A2.086,2.086,0,0,1,33.6,2.031V3.192ZM34.006,25.7l-5.073-7.719a1.194,1.194,0,0,0-1.97,0l-2.394,3.675,2.6,4.044H26.1L18.988,14.887a1.388,1.388,0,0,0-2.289,0L9.755,25.7H8.781V7.908H35.592V25.7ZM35.9,28H8.481a2.089,2.089,0,0,1-2.131-2.028V7.622A2.089,2.089,0,0,1,8.481,5.6H35.9A2.086,2.086,0,0,1,38.03,7.628V25.99A2.09,2.09,0,0,1,35.9,28Z" transform="translate(191.825 1220.854)" fill="#1e62c7" fill-rule="evenodd"/>
    </g>
  </g>
</svg>
