<svg xmlns="http://www.w3.org/2000/svg" xmlns:xlink="http://www.w3.org/1999/xlink" width="1366" height="619" viewBox="0 0 1366 619">
  <defs>
    <linearGradient id="linear-gradient" y1="0.5" x2="1" y2="0.5" gradientUnits="objectBoundingBox">
      <stop offset="0" stop-color="#247cff"/>
      <stop offset="1" stop-color="#1e62c7"/>
    </linearGradient>
  </defs>
  <g id="Group_15412" data-name="Group 15412" transform="translate(0 -1255)">
    <rect id="Rectangle_6486" data-name="Rectangle 6486" width="1366" height="619" transform="translate(0 1255)" fill="url(#linear-gradient)"/>
    <g id="Group_15196" data-name="Group 15196">
      <path id="Path_27145" data-name="Path 27145" d="M68.446,3.535,198.352.023c34.906-.943,62.438,26.589,61.494,61.494l-3.511,129.907c-.943,34.906-30.005,63.968-64.911,64.911L61.518,259.847C26.612,260.79-.92,233.258.023,198.352L3.535,68.446C4.478,33.54,33.54,4.478,68.446,3.535Z" transform="translate(497.029 1520.756) rotate(-45)" fill="rgba(255,255,255,0.03)"/>
      <path id="Path_27146" data-name="Path 27146" d="M66.071,1.16,108.14.023c34.906-.943,62.438,26.589,61.494,61.494L168.5,103.586c-.943,34.906-30.005,63.967-64.911,64.911l-42.069,1.137C26.612,170.578-.92,143.046.023,108.14L1.16,66.071C2.1,31.166,31.166,2.1,66.071,1.16Z" transform="translate(610.129 1672.471) rotate(-45)" fill="rgba(255,255,255,0.03)"/>
      <path id="Path_27147" data-name="Path 27147" d="M67.164,2.253l82.5-2.23c34.906-.943,62.438,26.588,61.494,61.494l-2.23,82.5c-.943,34.906-30.005,63.968-64.911,64.911l-82.5,2.23C26.612,212.107-.92,184.575.023,149.669l2.23-82.5C3.2,32.258,32.258,3.2,67.164,2.253Z" transform="translate(464.854 1672.471) rotate(-45)" fill="rgba(255,255,255,0.03)"/>
    </g>
  </g>
</svg>
