<svg xmlns="http://www.w3.org/2000/svg" xmlns:xlink="http://www.w3.org/1999/xlink" width="72" height="72" viewBox="0 0 72 72">
  <defs>
    <clipPath id="clip-path">
      <rect id="Rectangle_6380" data-name="Rectangle 6380" width="48" height="48" transform="translate(185.854 1208.854)" fill="#1e62c7" stroke="#707070" stroke-width="1"/>
    </clipPath>
  </defs>
  <g id="Group_13733" data-name="Group 13733" transform="translate(-174.854 -1198.854)">
    <rect id="Rectangle_5907" data-name="Rectangle 5907" width="72" height="72" rx="20" transform="translate(174.854 1198.854)" fill="#e8f2ff"/>
    <g id="Mask_Group_86" data-name="Mask Group 86" transform="translate(1 2)" clip-path="url(#clip-path)">
      <path id="right-files" d="M18.44,20.426H29.354A2.641,2.641,0,0,1,32,23.062V33.356a2.641,2.641,0,0,1-2.646,2.636H18.44a2.641,2.641,0,0,1-2.646-2.636v-10.3a2.641,2.641,0,0,1,2.646-2.636ZM25.5,10.692h2.317a2,2,0,0,1,2.023,2.015v4.926H28.072V12.716a.281.281,0,0,0-.291-.287H25.505v5.2H23.65V10.25H15.938a.93.93,0,0,1-.944-.928V1.842H1.858V29.8H12.866v1.848H4.813v2.319a.293.293,0,0,0,.294.293H12.86V36H5.113a2.054,2.054,0,0,1-2.035-2.029V31.663H1.664A1.667,1.667,0,0,1,.488,31.18,1.637,1.637,0,0,1,0,30.008V1.655A1.658,1.658,0,0,1,1.664,0H15.938a.91.91,0,0,1,.712.34l8.182,7.907a.923.923,0,0,1,.673.879v1.549ZM5.88,19.589a.625.625,0,0,0,0,1.248h6.968V19.589Zm0,4.469a.625.625,0,0,0,0,1.248h6.968V24.058Zm0-13.41a.624.624,0,0,0,0,1.248h6.436a.625.625,0,0,0,0-1.248Zm0-4.469a.587.587,0,0,0-.564.624.587.587,0,0,0,.564.624H9.408A.587.587,0,0,0,9.97,6.8a.587.587,0,0,0-.562-.624Zm0,8.938a.6.6,0,0,0-.588.627.587.587,0,0,0,.588.624H16.759a.6.6,0,0,0,.588-.624.587.587,0,0,0-.588-.627Zm11-11.878L22.415,8.4H16.861V3.239Zm4.563,23.615,1.391,1.3L26.149,24.8c.294-.293.479-.539.844-.167l1.176,1.2c.388.381.368.6,0,.961L23.5,31.379c-.77.753-.638.8-1.417.026L19.44,28.8a.339.339,0,0,1,.029-.53l1.37-1.414c.209-.214.373-.2.588,0Z" transform="translate(193.853 1214.854)" fill="#1e62c7" fill-rule="evenodd"/>
    </g>
  </g>
</svg>
