<svg xmlns="http://www.w3.org/2000/svg" xmlns:xlink="http://www.w3.org/1999/xlink" width="72" height="72" viewBox="0 0 72 72">
  <defs>
    <clipPath id="clip-path">
      <rect id="Rectangle_6377" data-name="Rectangle 6377" width="48" height="48" transform="translate(183.854 1208.854)" fill="#1e62c7"/>
    </clipPath>
  </defs>
  <g id="Group_13733" data-name="Group 13733" transform="translate(-174.854 -1198.854)">
    <rect id="Rectangle_5907" data-name="Rectangle 5907" width="72" height="72" rx="20" transform="translate(174.854 1198.854)" fill="#e8f2ff"/>
    <g id="Mask_Group_83" data-name="Mask Group 83" transform="translate(3 2)" clip-path="url(#clip-path)">
      <path id="graphic-designing" d="M.9,25.916H5.41a.791.791,0,0,1-.584-.76V6.512a.785.785,0,0,1,.781-.785h4.941l-.319,1.3H6.22V24.932H37.68V7.019H33.741l-.358-1.3H38.2a.781.781,0,0,1,.763.789v18.64a.784.784,0,0,1-.584.76H43.1c1.2,0,1.2,2.088,0,2.088H.9C-.3,28-.3,25.916.9,25.916ZM20.664,0h3.072a.414.414,0,0,1,.412.416V1.447H29A1.656,1.656,0,0,1,29.4.814h0a1.649,1.649,0,0,1,2.356,0h0a1.691,1.691,0,0,1,0,2.381h0a1.649,1.649,0,0,1-2.356,0h0A1.671,1.671,0,0,1,29,2.533H26.5A9.052,9.052,0,0,1,28.667,4.3a9.861,9.861,0,0,1,2.385,5h.673a.488.488,0,0,1,.355.143.5.5,0,0,1,.146.357v2.276a.5.5,0,0,1-.142.353.488.488,0,0,1-.348.146H29.5a.5.5,0,0,1-.494-.5V9.8a.5.5,0,0,1,.494-.5h.516a8.813,8.813,0,0,0-2.105-4.287,7.9,7.9,0,0,0-3.76-2.341v.886a.418.418,0,0,1-.118.3.41.41,0,0,1-.294.124H20.664a.406.406,0,0,1-.292-.121.415.415,0,0,1-.12-.3V2.67a7.868,7.868,0,0,0-3.831,2.439A8.927,8.927,0,0,0,14.4,9.3h.5a.5.5,0,0,1,.494.5v2.276a.5.5,0,0,1-.494.5H12.676a.491.491,0,0,1-.354-.144.5.5,0,0,1-.147-.356V9.8a.5.5,0,0,1,.147-.356.491.491,0,0,1,.354-.144h.684a9.965,9.965,0,0,1,2.3-4.873A9.021,9.021,0,0,1,17.9,2.533h-2.9a1.641,1.641,0,0,1-.394.63h0a1.649,1.649,0,0,1-1.178.5,1.674,1.674,0,0,1-1.182-.5h0a1.691,1.691,0,0,1,0-2.381h0a1.649,1.649,0,0,1,2.356,0h0a1.657,1.657,0,0,1,.4.666h5.246V.416a.415.415,0,0,1,.12-.3A.406.406,0,0,1,20.664,0Zm6.069,14.74L25.14,18.857l-5.876-.076L17.639,14.74a39.95,39.95,0,0,0,3.549-8.321l.773.087-.029,7.279a.76.76,0,1,0,.462-.018l.021-7.2.888-.051a33.927,33.927,0,0,0,3.43,8.217ZM25,20.623H19.293V19.472H25ZM20.722,26.26h2.553c.576,0,.576,1.132,0,1.132H20.722C20.145,27.392,20.142,26.26,20.722,26.26Z" transform="translate(185.854 1218.854)" fill="#1e62c7" fill-rule="evenodd"/>
    </g>
  </g>
</svg>
